<svg class="animated" id="freepik_stories-brand-guidelines" xmlns="http://www.w3.org/2000/svg" viewBox="0 0 500 500" version="1.1" xmlns:xlink="http://www.w3.org/1999/xlink" xmlns:svgjs="http://svgjs.com/svgjs"><style>svg#freepik_stories-brand-guidelines:not(.animated) .animable {opacity: 0;}svg#freepik_stories-brand-guidelines.animated #freepik--speech-bubble--inject-23 {animation: 3s 1 forwards cubic-bezier(.36,-0.01,.5,1.38) slideLeft;animation-delay: 0s;}svg#freepik_stories-brand-guidelines.animated #freepik--Gears--inject-23 {animation: 1s 1 forwards cubic-bezier(.36,-0.01,.5,1.38) slideLeft;animation-delay: 0s;}svg#freepik_stories-brand-guidelines.animated #freepik--paper-planes--inject-23 {animation: 1s 1 forwards cubic-bezier(.36,-0.01,.5,1.38) slideUp;animation-delay: 0s;}            @keyframes slideLeft {                0% {                    opacity: 0;                    transform: translateX(-30px);                }                100% {                    opacity: 1;                    transform: translateX(0);                }            }                    @keyframes slideUp {                0% {                    opacity: 0;                    transform: translateY(30px);                }                100% {                    opacity: 1;                    transform: inherit;                }            }        </style><g id="freepik--Floor--inject-23" class="animable" style="transform-origin: 250px 356.975px;"><path id="freepik--floor--inject-23" d="M96.85,268.55c-84.58,48.84-84.58,128,0,176.85s221.72,48.83,306.3,0,84.58-128,0-176.85S181.43,219.72,96.85,268.55Z" style="fill: rgb(245, 245, 245); transform-origin: 250px 356.975px;" class="animable"></path></g><g id="freepik--Plants--inject-23" class="animable" style="transform-origin: 92.0414px 328.464px;"><g id="freepik--plants--inject-23" class="animable" style="transform-origin: 92.0414px 328.464px;"><path d="M114,362.59l-13,7.53c.17-4.65.58-11.58-.06-16.24-4-28.52-15-37.92-20.34-51.8-5.56-14.62,1.22-19.33,10-16.7,7.86,2.35,19.23,14,22.81,35.26C115.75,334.8,115.33,350.17,114,362.59Z" style="fill: rgb(186, 104, 200); transform-origin: 96.832px 327.404px;" id="elh9fz90ue216" class="animable"></path><g id="el31p5sobzabk"><path d="M114,362.59l-13,7.53c.17-4.65.58-11.58-.06-16.24-4-28.52-15-37.92-20.34-51.8-5.56-14.62,1.22-19.33,10-16.7,7.86,2.35,19.23,14,22.81,35.26C115.75,334.8,115.33,350.17,114,362.59Z" style="fill: rgb(255, 255, 255); opacity: 0.65; transform-origin: 96.832px 327.404px;" class="animable"></path></g><path d="M107.05,366.58l-1.31.76c4.67-33.25-6.7-62.09-17.92-74a.57.57,0,0,1,.84-.78C99.87,304.47,111.23,333.5,107.05,366.58Z" style="fill: rgb(255, 255, 255); transform-origin: 97.802px 329.859px;" id="ell0hq6jl8lro" class="animable"></path><path d="M104.58,368l-7.34,4.24h0c-3.91-11.49-7.92-16.09-12.89-23.65-4.54-6.88-9.81-11.14-12.61-16-2.49-4.28-4.35-9.66-.66-12.91,5.87-5.19,13.52.3,18.79,6.22C94.42,331.05,103.58,344.68,104.58,368Z" style="fill: rgb(186, 104, 200); transform-origin: 86.7904px 344.924px;" id="elpy7y7ykxi3" class="animable"></path><g id="eldgefjv5lwbe"><path d="M104.58,368l-7.34,4.24h0c-3.91-11.49-7.92-16.09-12.89-23.65-4.54-6.88-9.81-11.14-12.61-16-2.49-4.28-4.35-9.66-.66-12.91,5.87-5.19,13.52.3,18.79,6.22C94.42,331.05,103.58,344.68,104.58,368Z" style="fill: rgb(255, 255, 255); opacity: 0.3; transform-origin: 86.7904px 344.924px;" class="animable"></path></g><path d="M101.57,369.74l-1.07.62c-3.08-18.17-15.43-39.21-23.1-44.17a.59.59,0,0,1-.17-.82.58.58,0,0,1,.81-.17C86,330.35,98.3,351.29,101.57,369.74Z" style="fill: rgb(255, 255, 255); transform-origin: 89.351px 347.731px;" id="elc33axbppfhl" class="animable"></path></g></g><g id="freepik--Shadows--inject-23" class="animable" style="transform-origin: 231.13px 395.9px;"><ellipse id="freepik--Shadow--inject-23" cx="313.85" cy="395.9" rx="70.86" ry="40.91" style="fill: rgb(224, 224, 224); transform-origin: 313.85px 395.9px;" class="animable"></ellipse><ellipse id="freepik--shadow--inject-23" cx="148.41" cy="395.9" rx="70.86" ry="40.91" style="fill: rgb(224, 224, 224); transform-origin: 148.41px 395.9px;" class="animable"></ellipse></g><g id="freepik--speech-bubble--inject-23" class="animable animator-active" style="transform-origin: 94.0114px 97.4338px;"><g id="freepik--speech-bubble--inject-23" class="animable" style="transform-origin: 94.0114px 97.4338px;"><g id="freepik--speech-bubble--inject-23" class="animable" style="transform-origin: 94.0114px 97.4338px;"><path d="M102.57,96.09l0-13.56L114,81.33a1,1,0,0,1,.65.14l6,3.46a1.08,1.08,0,0,1,.24,1.68l-12.31,13Z" style="fill: rgb(186, 104, 200); transform-origin: 111.879px 90.466px;" id="el0qdfk8uj904r" class="animable"></path><path d="M66.8,126.68V84.73a2.13,2.13,0,0,1,1-1.66L102,63.36a2.08,2.08,0,0,1,1.91,0l5.32,3.14a2.16,2.16,0,0,1,1,1.66v42a2.09,2.09,0,0,1-1,1.65L75,131.5a2.11,2.11,0,0,1-1.91,0l-5.32-3.14A2.16,2.16,0,0,1,66.8,126.68Z" style="fill: rgb(186, 104, 200); transform-origin: 88.515px 97.4281px;" id="elkgruihx594g" class="animable"></path><g id="elsfso6paczm"><path d="M74.82,131.57c-.45.18-.8-.07-.8-.62V89a2,2,0,0,1,.29-.94l-7.25-4.23a1.93,1.93,0,0,0-.26.91v42a2.16,2.16,0,0,0,1,1.67l5.32,3.14A2.1,2.1,0,0,0,74.82,131.57Z" style="opacity: 0.15; transform-origin: 70.81px 107.785px;" class="animable"></path></g><path d="M120,84.8l-9.83,1V68.17c0-.6-.43-.85-1-.55L75,87.34A2.09,2.09,0,0,0,74,89v42c0,.61.43.85,1,.55l34.21-19.72a2.09,2.09,0,0,0,1-1.65V97.89l10.72-11.28A1.08,1.08,0,0,0,120,84.8Z" style="fill: rgb(186, 104, 200); transform-origin: 97.6114px 99.5859px;" id="elllk7qh4ihsc" class="animable"></path><g id="elebnksfuhac"><path d="M120,84.8l-9.83,1V68.17c0-.6-.43-.85-1-.55L75,87.34A2.09,2.09,0,0,0,74,89v42c0,.61.43.85,1,.55l34.21-19.72a2.09,2.09,0,0,0,1-1.65V97.89l10.72-11.28A1.08,1.08,0,0,0,120,84.8Z" style="fill: rgb(255, 255, 255); opacity: 0.35; transform-origin: 97.6114px 99.5859px;" class="animable"></path></g></g><path id="freepik--Check--inject-23" d="M102.41,79.15a3,3,0,0,0-3.93,1.6l-11.34,27-2.7-2.63a3,3,0,1,0-4.18,4.3l5.86,5.69a3,3,0,0,0,2.08.85,3.05,3.05,0,0,0,.6-.06A3,3,0,0,0,91,114.1l13-31A3,3,0,0,0,102.41,79.15Z" style="fill: rgb(250, 250, 250); transform-origin: 91.7624px 97.4372px;" class="animable"></path></g></g><g id="freepik--Gears--inject-23" class="animable" style="transform-origin: 215.858px 83.1273px;"><g id="freepik--Gear--inject-23" class="animable" style="transform-origin: 235.414px 94.647px;"><path d="M272.13,71.37h0l-6.51-3.73h0a.72.72,0,0,0-.67,0l-4.43,2a1.93,1.93,0,0,1,.13-1.08l5.12-10.33a1.16,1.16,0,0,0-.45-1.51l-5.56-3.21h0l-6.47-3.72a1.18,1.18,0,0,0-1.53.36l-6.38,9.61a1.92,1.92,0,0,1-.85.64L244,55.53a.71.71,0,0,0-.32-.58h0l-6.51-3.74h0a.72.72,0,0,0-.7.06l-8.64,5a2.31,2.31,0,0,0-1,1.61l-.87,9.61a3.21,3.21,0,0,1-.89,1.8,50.44,50.44,0,0,0-4.8,5.08,1.67,1.67,0,0,1-1.7.48L213,72.9a1.36,1.36,0,0,0-1.56.58l-6.35,11a1.36,1.36,0,0,0,.28,1.64L209.83,90a1.67,1.67,0,0,1,.43,1.71,51.13,51.13,0,0,0-2,6.7,3.18,3.18,0,0,1-1.11,1.67l-7.89,5.56a2.3,2.3,0,0,0-.88,1.69v10a.7.7,0,0,0,.31.64h0l6.51,3.73h0a.72.72,0,0,0,.67,0l4.44-2a1.94,1.94,0,0,1-.14,1.08L205,131a1.15,1.15,0,0,0,.45,1.5L213.3,137h0l4.24,2.44a1.16,1.16,0,0,0,1.53-.36l6.39-9.6a1.91,1.91,0,0,1,.84-.65l.49,4.87a.72.72,0,0,0,.33.59h0l6.49,3.73h0a.69.69,0,0,0,.71-.06l8.63-5a2.31,2.31,0,0,0,1-1.62l.87-9.61a3.17,3.17,0,0,1,.9-1.79,52.66,52.66,0,0,0,4.79-5.08,1.65,1.65,0,0,1,1.7-.48l5.55,1.93a1.34,1.34,0,0,0,1.55-.57l6.35-11a1.35,1.35,0,0,0-.27-1.64L261,99.32a1.67,1.67,0,0,1-.43-1.72,52.51,52.51,0,0,0,2-6.69,3.31,3.31,0,0,1,1.11-1.68l7.89-5.55a2.31,2.31,0,0,0,.88-1.7V72A.71.71,0,0,0,272.13,71.37Zm-48.07,33.55c0-9.3,6.53-20.62,14.59-25.27,3.16-1.82,6.07-2.35,8.46-1.77,1.23,1.72,1.89,4.33,1.89,7.74,0,9.31-6.53,20.62-14.59,25.28-3.16,1.82-5.83,2.4-7.94,1.91C225,111,224.06,108.35,224.06,104.92Z" style="fill: rgb(186, 104, 200); transform-origin: 235.414px 94.6181px;" id="elggu5h3bp5kb" class="animable"></path><g id="el09brna5pslg7"><path d="M272.13,71.37h0l-6.51-3.73h0a.72.72,0,0,0-.67,0l-4.43,2a1.93,1.93,0,0,1,.13-1.08l5.12-10.33a1.16,1.16,0,0,0-.45-1.51l-5.56-3.21h0l-6.47-3.72a1.18,1.18,0,0,0-1.53.36l-6.38,9.61a1.92,1.92,0,0,1-.85.64L244,55.53a.71.71,0,0,0-.32-.58h0l-6.51-3.74h0a.72.72,0,0,0-.7.06l-8.64,5a2.31,2.31,0,0,0-1,1.61l-.87,9.61a3.21,3.21,0,0,1-.89,1.8,50.44,50.44,0,0,0-4.8,5.08,1.67,1.67,0,0,1-1.7.48L213,72.9a1.36,1.36,0,0,0-1.56.58l-6.35,11a1.36,1.36,0,0,0,.28,1.64L209.83,90a1.67,1.67,0,0,1,.43,1.71,51.13,51.13,0,0,0-2,6.7,3.18,3.18,0,0,1-1.11,1.67l-7.89,5.56a2.3,2.3,0,0,0-.88,1.69v10a.7.7,0,0,0,.31.64h0l6.51,3.73h0a.72.72,0,0,0,.67,0l4.44-2a1.94,1.94,0,0,1-.14,1.08L205,131a1.15,1.15,0,0,0,.45,1.5L213.3,137h0l4.24,2.44a1.16,1.16,0,0,0,1.53-.36l6.39-9.6a1.91,1.91,0,0,1,.84-.65l.49,4.87a.72.72,0,0,0,.33.59h0l6.49,3.73h0a.69.69,0,0,0,.71-.06l8.63-5a2.31,2.31,0,0,0,1-1.62l.87-9.61a3.17,3.17,0,0,1,.9-1.79,52.66,52.66,0,0,0,4.79-5.08,1.65,1.65,0,0,1,1.7-.48l5.55,1.93a1.34,1.34,0,0,0,1.55-.57l6.35-11a1.35,1.35,0,0,0-.27-1.64L261,99.32a1.67,1.67,0,0,1-.43-1.72,52.51,52.51,0,0,0,2-6.69,3.31,3.31,0,0,1,1.11-1.68l7.89-5.55a2.31,2.31,0,0,0,.88-1.7V72A.71.71,0,0,0,272.13,71.37Zm-48.07,33.55c0-9.3,6.53-20.62,14.59-25.27,3.16-1.82,6.07-2.35,8.46-1.77,1.23,1.72,1.89,4.33,1.89,7.74,0,9.31-6.53,20.62-14.59,25.28-3.16,1.82-5.83,2.4-7.94,1.91C225,111,224.06,108.35,224.06,104.92Z" style="fill: rgb(255, 255, 255); opacity: 0.2; transform-origin: 235.414px 94.6181px;" class="animable"></path></g><g id="elmj48stdgras"><path d="M214.83,118.75a.92.92,0,0,0-1.28-.6l-3.24,1.46a2,2,0,0,1-.14,1.09L205,131a1.17,1.17,0,0,0,.46,1.51l7.8,4.48-1.31-.76a1.16,1.16,0,0,1-.46-1.5l5.13-10.33a2.16,2.16,0,0,0-.12-1.87A17.47,17.47,0,0,1,214.83,118.75ZM233.55,138a.84.84,0,0,1-.26-.55l-.84-8.39a.91.91,0,0,0-1.15-.81,17.43,17.43,0,0,1-4.16.42,1.92,1.92,0,0,0-.83.18l.49,4.87a.7.7,0,0,0,.33.59h0Z" style="opacity: 0.1; transform-origin: 219.218px 128.032px;" class="animable"></path></g><g id="el2b4l8y347qw"><path d="M253.24,88.07c0,9.31-6.52,20.62-14.58,25.28-5.1,2.94-9.58,2.51-12.19-.54,2.09.5,4.78-.09,7.94-1.91,8.06-4.66,14.59-16,14.59-25.28,0-3.41-.66-6-1.89-7.74C250.83,78.79,253.24,82.41,253.24,88.07Z" style="opacity: 0.1; transform-origin: 239.855px 96.6105px;" class="animable"></path></g><path d="M253.26,49.79a1.16,1.16,0,0,0-1.53.37l-6.39,9.6a1.64,1.64,0,0,1-.42.41l6.5,3.73a1.4,1.4,0,0,0,.42-.42l6.39-9.6a1.19,1.19,0,0,1,1.4-.43Zm12.36,17.84h0a.75.75,0,0,0-.67,0l-4.44,2a2.11,2.11,0,0,0,.26.78,17.24,17.24,0,0,1,1.64,3.63.62.62,0,0,1,.07.19,1.09,1.09,0,0,0,.23.39l.11.11a.79.79,0,0,0,.26.13.92.92,0,0,0,.47,0,.86.86,0,0,0,.21-.07l7.69-3.47.2-.07a.46.46,0,0,1,.26,0,.41.41,0,0,1,.22.07h0ZM237.17,51.21a.67.67,0,0,0-.69.06l-8.64,5a2.25,2.25,0,0,0-.87,1L233.46,61a2.31,2.31,0,0,1,.87-1L243,55a.74.74,0,0,1,.66-.09ZM207.76,99.39a2.85,2.85,0,0,1-.6.64l-7.89,5.55a2.1,2.1,0,0,0-.53.61l6.48,3.72a1.86,1.86,0,0,1,.54-.6l7.89-5.55a2.89,2.89,0,0,0,.61-.64Zm4.8-26.55a1.35,1.35,0,0,0-1.11.64l-6.35,11a1.3,1.3,0,0,0-.15.8l6.5,3.74a1.2,1.2,0,0,1,.14-.81l6.36-11a1.32,1.32,0,0,1,1-.63Z" style="fill: rgb(186, 104, 200); transform-origin: 235.435px 79.7766px;" id="el3o1exsgte59" class="animable"></path><g id="elo96nosuo4x"><path d="M253.26,49.79a1.16,1.16,0,0,0-1.53.37l-6.39,9.6a1.64,1.64,0,0,1-.42.41l6.5,3.73a1.4,1.4,0,0,0,.42-.42l6.39-9.6a1.19,1.19,0,0,1,1.4-.43Zm12.36,17.84h0a.75.75,0,0,0-.67,0l-4.44,2a2.11,2.11,0,0,0,.26.78,17.24,17.24,0,0,1,1.64,3.63.62.62,0,0,1,.07.19,1.09,1.09,0,0,0,.23.39l.11.11a.79.79,0,0,0,.26.13.92.92,0,0,0,.47,0,.86.86,0,0,0,.21-.07l7.69-3.47.2-.07a.46.46,0,0,1,.26,0,.41.41,0,0,1,.22.07h0ZM237.17,51.21a.67.67,0,0,0-.69.06l-8.64,5a2.25,2.25,0,0,0-.87,1L233.46,61a2.31,2.31,0,0,1,.87-1L243,55a.74.74,0,0,1,.66-.09ZM207.76,99.39a2.85,2.85,0,0,1-.6.64l-7.89,5.55a2.1,2.1,0,0,0-.53.61l6.48,3.72a1.86,1.86,0,0,1,.54-.6l7.89-5.55a2.89,2.89,0,0,0,.61-.64Zm4.8-26.55a1.35,1.35,0,0,0-1.11.64l-6.35,11a1.3,1.3,0,0,0-.15.8l6.5,3.74a1.2,1.2,0,0,1,.14-.81l6.36-11a1.32,1.32,0,0,1,1-.63Z" style="fill: rgb(255, 255, 255); opacity: 0.7; transform-origin: 235.435px 79.7766px;" class="animable"></path></g><path d="M272.43,82V72a.64.64,0,0,0-1-.64l-7.69,3.47a.92.92,0,0,1-1.28-.6,17.47,17.47,0,0,0-1.71-3.81,2.14,2.14,0,0,1-.12-1.86l5.12-10.33a1.16,1.16,0,0,0-.45-1.51l-5.56-3.21a1.16,1.16,0,0,0-1.53.36l-6.39,9.6a2.1,2.1,0,0,1-1.67.83,17.46,17.46,0,0,0-4.16.43.92.92,0,0,1-1.15-.82L244,55.53a.64.64,0,0,0-1-.53l-8.63,5a2.33,2.33,0,0,0-1,1.61l-.86,9.61a3.17,3.17,0,0,1-.9,1.79,52.75,52.75,0,0,0-4.8,5.08,1.63,1.63,0,0,1-1.69.48l-5.55-1.93a1.35,1.35,0,0,0-1.56.58l-6.35,11a1.36,1.36,0,0,0,.28,1.63l4.45,3.84a1.65,1.65,0,0,1,.43,1.71,52.57,52.57,0,0,0-2,6.69,3.25,3.25,0,0,1-1.1,1.68l-7.89,5.55a2.34,2.34,0,0,0-.88,1.7v10a.64.64,0,0,0,1,.63l7.69-3.47a.92.92,0,0,1,1.28.6,17,17,0,0,0,1.71,3.81,2.14,2.14,0,0,1,.12,1.86l-5.13,10.34a1.16,1.16,0,0,0,.46,1.5l5.56,3.21a1.16,1.16,0,0,0,1.53-.36l6.39-9.6a2.09,2.09,0,0,1,1.67-.83,17.43,17.43,0,0,0,4.16-.42.91.91,0,0,1,1.15.81l.84,8.39a.65.65,0,0,0,1.05.53l8.63-5a2.31,2.31,0,0,0,1-1.62l.87-9.61a3.17,3.17,0,0,1,.9-1.79,52.66,52.66,0,0,0,4.79-5.08,1.65,1.65,0,0,1,1.7-.48l5.55,1.93a1.34,1.34,0,0,0,1.55-.57l6.35-11a1.35,1.35,0,0,0-.27-1.64L261,99.32a1.67,1.67,0,0,1-.43-1.72,54.25,54.25,0,0,0,2-6.69,3.23,3.23,0,0,1,1.1-1.68l7.89-5.55A2.31,2.31,0,0,0,272.43,82Zm-33.78,31.37c-8.06,4.65-14.59.88-14.59-8.43s6.53-20.62,14.59-25.27,14.6-.89,14.6,8.42S246.71,108.69,238.65,113.35Z" style="fill: rgb(186, 104, 200); transform-origin: 238.691px 96.505px;" id="elbqrd51ly1x" class="animable"></path><g id="eli4fokzjx9pj"><path d="M272.43,82V72a.64.64,0,0,0-1-.64l-7.69,3.47a.92.92,0,0,1-1.28-.6,17.47,17.47,0,0,0-1.71-3.81,2.14,2.14,0,0,1-.12-1.86l5.12-10.33a1.16,1.16,0,0,0-.45-1.51l-5.56-3.21a1.16,1.16,0,0,0-1.53.36l-6.39,9.6a2.1,2.1,0,0,1-1.67.83,17.46,17.46,0,0,0-4.16.43.92.92,0,0,1-1.15-.82L244,55.53a.64.64,0,0,0-1-.53l-8.63,5a2.33,2.33,0,0,0-1,1.61l-.86,9.61a3.17,3.17,0,0,1-.9,1.79,52.75,52.75,0,0,0-4.8,5.08,1.63,1.63,0,0,1-1.69.48l-5.55-1.93a1.35,1.35,0,0,0-1.56.58l-6.35,11a1.36,1.36,0,0,0,.28,1.63l4.45,3.84a1.65,1.65,0,0,1,.43,1.71,52.57,52.57,0,0,0-2,6.69,3.25,3.25,0,0,1-1.1,1.68l-7.89,5.55a2.34,2.34,0,0,0-.88,1.7v10a.64.64,0,0,0,1,.63l7.69-3.47a.92.92,0,0,1,1.28.6,17,17,0,0,0,1.71,3.81,2.14,2.14,0,0,1,.12,1.86l-5.13,10.34a1.16,1.16,0,0,0,.46,1.5l5.56,3.21a1.16,1.16,0,0,0,1.53-.36l6.39-9.6a2.09,2.09,0,0,1,1.67-.83,17.43,17.43,0,0,0,4.16-.42.91.91,0,0,1,1.15.81l.84,8.39a.65.65,0,0,0,1.05.53l8.63-5a2.31,2.31,0,0,0,1-1.62l.87-9.61a3.17,3.17,0,0,1,.9-1.79,52.66,52.66,0,0,0,4.79-5.08,1.65,1.65,0,0,1,1.7-.48l5.55,1.93a1.34,1.34,0,0,0,1.55-.57l6.35-11a1.35,1.35,0,0,0-.27-1.64L261,99.32a1.67,1.67,0,0,1-.43-1.72,54.25,54.25,0,0,0,2-6.69,3.23,3.23,0,0,1,1.1-1.68l7.89-5.55A2.31,2.31,0,0,0,272.43,82Zm-33.78,31.37c-8.06,4.65-14.59.88-14.59-8.43s6.53-20.62,14.59-25.27,14.6-.89,14.6,8.42S246.71,108.69,238.65,113.35Z" style="fill: rgb(255, 255, 255); opacity: 0.55; transform-origin: 238.691px 96.505px;" class="animable"></path></g><g id="elh0g6khaqbvo"><g style="opacity: 0.55; transform-origin: 238.695px 96.505px;" class="animable"><path d="M259.19,54.1a.42.42,0,0,1,.2,0L265,57.37a.43.43,0,0,1,.17.54L260,68.24a2.85,2.85,0,0,0,.15,2.57,16.28,16.28,0,0,1,1.64,3.66,1.65,1.65,0,0,0,1.58,1.19,1.73,1.73,0,0,0,.7-.15l7.64-3.45V82a1.63,1.63,0,0,1-.57,1.1l-7.89,5.56a3.88,3.88,0,0,0-1.4,2.11,51.28,51.28,0,0,1-2,6.6,2.37,2.37,0,0,0,.64,2.52L265,103.7a.64.64,0,0,1,.12.72l-6.35,11a.63.63,0,0,1-.53.28.4.4,0,0,1-.15,0l-5.55-1.93a1.92,1.92,0,0,0-.69-.12,2.41,2.41,0,0,0-1.81.82,51.6,51.6,0,0,1-4.73,5,3.91,3.91,0,0,0-1.13,2.27l-.87,9.61a1.58,1.58,0,0,1-.66,1l-8.59,5-.84-8.33a1.64,1.64,0,0,0-1.64-1.5,1.75,1.75,0,0,0-.4,0,16.92,16.92,0,0,1-3.6.41h-.44a2.84,2.84,0,0,0-2.24,1.15l-6.39,9.61a.43.43,0,0,1-.36.18.38.38,0,0,1-.19,0l-5.57-3.21a.44.44,0,0,1-.16-.55l5.12-10.33a2.85,2.85,0,0,0-.14-2.57,16.41,16.41,0,0,1-1.64-3.65,1.65,1.65,0,0,0-1.58-1.2,1.56,1.56,0,0,0-.7.16l-7.64,3.44V111a1.63,1.63,0,0,1,.57-1.1l7.89-5.55a3.91,3.91,0,0,0,1.4-2.12,51.28,51.28,0,0,1,2-6.6,2.39,2.39,0,0,0-.64-2.52l-4.45-3.83a.64.64,0,0,1-.12-.72l6.35-11a.62.62,0,0,1,.52-.28.41.41,0,0,1,.16,0l5.54,1.94a2.26,2.26,0,0,0,.69.11,2.4,2.4,0,0,0,1.82-.82,51.6,51.6,0,0,1,4.73-5,4,4,0,0,0,1.13-2.26l.86-9.62a1.66,1.66,0,0,1,.67-1l8.59-5,.84,8.34a1.63,1.63,0,0,0,1.64,1.49,1.81,1.81,0,0,0,.4,0,16.85,16.85,0,0,1,3.6-.41h.44a2.85,2.85,0,0,0,2.24-1.16l6.39-9.61a.42.42,0,0,1,.35-.18h0m-27.05,62A13.85,13.85,0,0,0,239,114c8.25-4.76,15-16.39,15-25.91a12.92,12.92,0,0,0-2.4-8.14,7.91,7.91,0,0,0-6.41-3A13.85,13.85,0,0,0,238.29,79c-8.25,4.76-15,16.39-15,25.91,0,6.78,3.46,11.15,8.81,11.15m27.05-62.7a1.16,1.16,0,0,0-1,.51l-6.39,9.6a2.1,2.1,0,0,1-1.63.83h-.44a17.29,17.29,0,0,0-3.76.43l-.24,0a.9.9,0,0,1-.91-.84L244,55.53c0-.42-.28-.66-.61-.66A.85.85,0,0,0,243,55l-8.63,5a2.33,2.33,0,0,0-1,1.61l-.86,9.61a3.17,3.17,0,0,1-.9,1.79,52.75,52.75,0,0,0-4.8,5.08,1.65,1.65,0,0,1-1.25.56,1.32,1.32,0,0,1-.44-.08l-5.55-1.93a1.09,1.09,0,0,0-.4-.07,1.36,1.36,0,0,0-1.16.65l-6.35,11a1.36,1.36,0,0,0,.28,1.63l4.45,3.84a1.65,1.65,0,0,1,.43,1.71,52.57,52.57,0,0,0-2,6.69,3.25,3.25,0,0,1-1.1,1.68l-7.89,5.55a2.34,2.34,0,0,0-.88,1.7v10c0,.45.25.72.6.72a.92.92,0,0,0,.38-.09l7.69-3.47a1,1,0,0,1,.4-.09.93.93,0,0,1,.88.69,17,17,0,0,0,1.71,3.81,2.14,2.14,0,0,1,.12,1.86l-5.13,10.34a1.16,1.16,0,0,0,.46,1.5l5.56,3.21a1.12,1.12,0,0,0,.56.15,1.16,1.16,0,0,0,1-.51l6.39-9.6a2.1,2.1,0,0,1,1.63-.83h.44a18,18,0,0,0,3.76-.42l.24,0a.9.9,0,0,1,.91.84l.84,8.39c.05.42.29.66.62.66a.82.82,0,0,0,.42-.13l8.64-5a2.31,2.31,0,0,0,1-1.62l.87-9.61a3.17,3.17,0,0,1,.9-1.79,52.66,52.66,0,0,0,4.79-5.08,1.71,1.71,0,0,1,1.25-.55,1.33,1.33,0,0,1,.45.07l5.55,1.93a1,1,0,0,0,.39.07,1.38,1.38,0,0,0,1.16-.64l6.35-11a1.35,1.35,0,0,0-.27-1.64L261,99.32a1.67,1.67,0,0,1-.43-1.72,54.25,54.25,0,0,0,2-6.69,3.23,3.23,0,0,1,1.1-1.68l7.89-5.55a2.31,2.31,0,0,0,.88-1.7V72c0-.45-.25-.73-.61-.73a.91.91,0,0,0-.37.09l-7.69,3.47a1,1,0,0,1-.4.09.93.93,0,0,1-.88-.69,17.47,17.47,0,0,0-1.71-3.81,2.14,2.14,0,0,1-.12-1.86l5.12-10.33a1.16,1.16,0,0,0-.45-1.51l-5.56-3.21a1.16,1.16,0,0,0-.57-.15Zm-27.05,62c-4.79,0-8.08-3.82-8.08-10.42,0-9.3,6.53-20.62,14.59-25.27a13.21,13.21,0,0,1,6.52-2c4.79,0,8.08,3.82,8.08,10.42,0,9.31-6.54,20.62-14.6,25.28a13.22,13.22,0,0,1-6.51,2Z" style="fill: rgb(255, 255, 255); transform-origin: 238.695px 96.505px;" id="elr6ojetbhoi" class="animable"></path></g></g></g><g id="freepik--gear--inject-23" class="animable" style="transform-origin: 184.015px 56.7721px;"><path d="M202.74,51.52a3.91,3.91,0,0,1,1-2.11L208,45.5a2.55,2.55,0,0,0,.72-2.1l-.8-4.63a.89.89,0,0,0-.41-.65h0l-5-2.91h0a.8.8,0,0,0-.88.08l-1.83,1.2,1.77-4.77a1,1,0,0,0-.49-1.32l0,0-5-2.91h0a1.22,1.22,0,0,0-.33-.14l-3.21-.71a1.71,1.71,0,0,0-1.81.84l-3,5.74a3.08,3.08,0,0,1-1.2,1.11l-.14-.46a.91.91,0,0,0-.41-.56h0l-5.05-2.91h0a.82.82,0,0,0-.95.13l-4.8,3.78a2.65,2.65,0,0,0-.91,2l.28,4.57a3.59,3.59,0,0,1-.74,2.21,35.63,35.63,0,0,0-2.23,3,2.46,2.46,0,0,1-2,1l-3.08-.15A2,2,0,0,0,164.72,48l-2.9,6.51a1.23,1.23,0,0,0,.5,1.56h0l3.42,2a1.56,1.56,0,0,1,.08.88,29.38,29.38,0,0,0-.54,3.11,3.94,3.94,0,0,1-1,2.11L160,68.05a2.61,2.61,0,0,0-.72,2.09l.8,4.64a.85.85,0,0,0,.39.63h0l5.07,2.92h0a.83.83,0,0,0,.87-.09l1.83-1.2-1.76,4.77a1,1,0,0,0,.42,1.3h0l5.06,2.92h0a1.39,1.39,0,0,0,.35.16l3.21.71a1.71,1.71,0,0,0,1.81-.84l3-5.74a3,3,0,0,1,1.19-1.11l.14.46a.89.89,0,0,0,.42.56h0l5,2.89h0l.06,0h0a.83.83,0,0,0,.92-.14l4.8-3.78a2.69,2.69,0,0,0,.92-2l-.29-4.56a3.6,3.6,0,0,1,.75-2.21c.78-1,1.53-1.93,2.23-3a2.49,2.49,0,0,1,1.95-1l3.09.16a2,2,0,0,0,1.77-1.09l2.9-6.51a1.24,1.24,0,0,0-.65-1.64l-2.49-1.07a1.55,1.55,0,0,1-.86-1.72A28.77,28.77,0,0,0,202.74,51.52ZM177.12,65.64c-1-5.46,2.51-13.21,7.71-17.3a10.47,10.47,0,0,1,5.48-2.44,8.38,8.38,0,0,1,.6,2c.94,5.46-2.52,13.21-7.72,17.3a10.55,10.55,0,0,1-5.45,2.44A7.65,7.65,0,0,1,177.12,65.64Z" style="fill: rgb(186, 104, 200); transform-origin: 184.002px 56.77px;" id="el9an35g5prh6" class="animable"></path><g id="elt1apsuw72ud"><path d="M202.74,51.52a3.91,3.91,0,0,1,1-2.11L208,45.5a2.55,2.55,0,0,0,.72-2.1l-.8-4.63a.89.89,0,0,0-.41-.65h0l-5-2.91h0a.8.8,0,0,0-.88.08l-1.83,1.2,1.77-4.77a1,1,0,0,0-.49-1.32l0,0-5-2.91h0a1.22,1.22,0,0,0-.33-.14l-3.21-.71a1.71,1.71,0,0,0-1.81.84l-3,5.74a3.08,3.08,0,0,1-1.2,1.11l-.14-.46a.91.91,0,0,0-.41-.56h0l-5.05-2.91h0a.82.82,0,0,0-.95.13l-4.8,3.78a2.65,2.65,0,0,0-.91,2l.28,4.57a3.59,3.59,0,0,1-.74,2.21,35.63,35.63,0,0,0-2.23,3,2.46,2.46,0,0,1-2,1l-3.08-.15A2,2,0,0,0,164.72,48l-2.9,6.51a1.23,1.23,0,0,0,.5,1.56h0l3.42,2a1.56,1.56,0,0,1,.08.88,29.38,29.38,0,0,0-.54,3.11,3.94,3.94,0,0,1-1,2.11L160,68.05a2.61,2.61,0,0,0-.72,2.09l.8,4.64a.85.85,0,0,0,.39.63h0l5.07,2.92h0a.83.83,0,0,0,.87-.09l1.83-1.2-1.76,4.77a1,1,0,0,0,.42,1.3h0l5.06,2.92h0a1.39,1.39,0,0,0,.35.16l3.21.71a1.71,1.71,0,0,0,1.81-.84l3-5.74a3,3,0,0,1,1.19-1.11l.14.46a.89.89,0,0,0,.42.56h0l5,2.89h0l.06,0h0a.83.83,0,0,0,.92-.14l4.8-3.78a2.69,2.69,0,0,0,.92-2l-.29-4.56a3.6,3.6,0,0,1,.75-2.21c.78-1,1.53-1.93,2.23-3a2.49,2.49,0,0,1,1.95-1l3.09.16a2,2,0,0,0,1.77-1.09l2.9-6.51a1.24,1.24,0,0,0-.65-1.64l-2.49-1.07a1.55,1.55,0,0,1-.86-1.72A28.77,28.77,0,0,0,202.74,51.52ZM177.12,65.64c-1-5.46,2.51-13.21,7.71-17.3a10.47,10.47,0,0,1,5.48-2.44,8.38,8.38,0,0,1,.6,2c.94,5.46-2.52,13.21-7.72,17.3a10.55,10.55,0,0,1-5.45,2.44A7.65,7.65,0,0,1,177.12,65.64Z" style="fill: rgb(255, 255, 255); opacity: 0.2; transform-origin: 184.002px 56.77px;" class="animable"></path></g><g id="elicjcxrexwsj"><path d="M172.35,75.84a1.22,1.22,0,0,0-1.7-.39l-2.43,1.6-1.77,4.78a1,1,0,0,0,.43,1.29l5,2.89a1.05,1.05,0,0,1-.38-1.27l2.17-5.87a2.11,2.11,0,0,0-.5-2A9.31,9.31,0,0,1,172.35,75.84Zm14.78,7.31a.86.86,0,0,1-.41-.55L185.64,79a1.09,1.09,0,0,0-1.51-.69,14.74,14.74,0,0,1-2,.65,2.66,2.66,0,0,0-.62.26l.14.47a1,1,0,0,0,.42.55h0Z" style="opacity: 0.1; transform-origin: 176.745px 80.6333px;" class="animable"></path></g><g id="el091zwb1wvj7m"><path d="M188.24,68.13c-4.49,3.53-8.81,3.19-10.51-.49a10.47,10.47,0,0,0,5.46-2.43c5.2-4.09,8.66-11.83,7.72-17.3a7.94,7.94,0,0,0-.61-2c2.86-.24,5.07,1.47,5.66,4.92C196.9,56.29,193.44,64,188.24,68.13Z" style="opacity: 0.1; transform-origin: 186.922px 58.2427px;" class="animable"></path></g><path d="M170.47,46.86a2.09,2.09,0,0,1-.88.19l-3.1-.15a1.94,1.94,0,0,0-1.28.47l5.06,2.91a2,2,0,0,1,1.28-.46l3.09.15a2,2,0,0,0,.88-.17Zm10.42-16.47a.82.82,0,0,0-.95.13l-4.8,3.78a2.61,2.61,0,0,0-.8,1.25l5.06,2.92a2.62,2.62,0,0,1,.79-1.26l4.8-3.77a.84.84,0,0,1,.95-.13h0Zm-16.7,33.79L160,68.05a2.38,2.38,0,0,0-.65,1.21l5,2.9a2.49,2.49,0,0,1,.67-1.2l4.2-3.85Zm31.86-36.69a1,1,0,0,0-.33-.13l-3.21-.73a1.74,1.74,0,0,0-1.81.85l-3,5.73A2.64,2.64,0,0,1,187,34l5.06,2.91a2.72,2.72,0,0,0,.68-.77l3-5.74a1.74,1.74,0,0,1,1.82-.84l3.2.72a1.61,1.61,0,0,1,.33.12Zm6.46,7.72h0a.84.84,0,0,0-.89.08l-1.82,1.21-.41,1.08a2.11,2.11,0,0,0,.51,2,8.2,8.2,0,0,1,.82,1,2.62,2.62,0,0,0,.22.25l.19.14a1.14,1.14,0,0,0,.42.16,1.11,1.11,0,0,0,.57,0,.82.82,0,0,0,.31-.13l4.25-2.8a1.3,1.3,0,0,1,.32-.15.6.6,0,0,1,.35,0,.66.66,0,0,1,.2.06Z" style="fill: rgb(186, 104, 200); transform-origin: 183.45px 49.382px;" id="elvwa8ct1aqxb" class="animable"></path><g id="elewdn5cyx2la"><path d="M170.47,46.86a2.09,2.09,0,0,1-.88.19l-3.1-.15a1.94,1.94,0,0,0-1.28.47l5.06,2.91a2,2,0,0,1,1.28-.46l3.09.15a2,2,0,0,0,.88-.17Zm10.42-16.47a.82.82,0,0,0-.95.13l-4.8,3.78a2.61,2.61,0,0,0-.8,1.25l5.06,2.92a2.62,2.62,0,0,1,.79-1.26l4.8-3.77a.84.84,0,0,1,.95-.13h0Zm-16.7,33.79L160,68.05a2.38,2.38,0,0,0-.65,1.21l5,2.9a2.49,2.49,0,0,1,.67-1.2l4.2-3.85Zm31.86-36.69a1,1,0,0,0-.33-.13l-3.21-.73a1.74,1.74,0,0,0-1.81.85l-3,5.73A2.64,2.64,0,0,1,187,34l5.06,2.91a2.72,2.72,0,0,0,.68-.77l3-5.74a1.74,1.74,0,0,1,1.82-.84l3.2.72a1.61,1.61,0,0,1,.33.12Zm6.46,7.72h0a.84.84,0,0,0-.89.08l-1.82,1.21-.41,1.08a2.11,2.11,0,0,0,.51,2,8.2,8.2,0,0,1,.82,1,2.62,2.62,0,0,0,.22.25l.19.14a1.14,1.14,0,0,0,.42.16,1.11,1.11,0,0,0,.57,0,.82.82,0,0,0,.31-.13l4.25-2.8a1.3,1.3,0,0,1,.32-.15.6.6,0,0,1,.35,0,.66.66,0,0,1,.2.06Z" style="fill: rgb(255, 255, 255); opacity: 0.7; transform-origin: 183.45px 49.382px;" class="animable"></path></g><path d="M208.75,43.41l-.8-4.64a.76.76,0,0,0-1.27-.55L202.43,41a1.23,1.23,0,0,1-1.71-.38,8.31,8.31,0,0,0-.82-1,2.1,2.1,0,0,1-.5-2l2.17-5.86a1.08,1.08,0,0,0-.8-1.46l-3.2-.72a1.76,1.76,0,0,0-1.82.84l-3,5.74a3.14,3.14,0,0,1-1.82,1.37,16.18,16.18,0,0,0-2,.65,1.09,1.09,0,0,1-1.52-.69l-1.08-3.59a.8.8,0,0,0-1.36-.43l-4.8,3.77a2.74,2.74,0,0,0-.91,2l.29,4.57a3.62,3.62,0,0,1-.75,2.21C178,47,177.29,48,176.59,49a2.47,2.47,0,0,1-2,1l-3.09-.15a2,2,0,0,0-1.77,1.09l-2.9,6.5a1.23,1.23,0,0,0,.64,1.65L170,60.12a1.55,1.55,0,0,1,.86,1.72,26.81,26.81,0,0,0-.53,3.1,3.88,3.88,0,0,1-1,2.11L165,71a2.59,2.59,0,0,0-.71,2.1l.8,4.64a.76.76,0,0,0,1.26.55l4.26-2.8a1.23,1.23,0,0,1,1.7.39,9.1,9.1,0,0,0,.83,1,2.12,2.12,0,0,1,.5,2l-2.17,5.86a1.08,1.08,0,0,0,.79,1.46l3.21.71a1.71,1.71,0,0,0,1.81-.84l3-5.74A3.11,3.11,0,0,1,182.16,79a15.1,15.1,0,0,0,2-.65,1.09,1.09,0,0,1,1.51.69l1.09,3.6a.8.8,0,0,0,1.35.43l4.8-3.78a2.69,2.69,0,0,0,.92-2l-.29-4.56a3.6,3.6,0,0,1,.75-2.21c.78-1,1.53-1.93,2.23-3a2.49,2.49,0,0,1,1.95-1l3.09.16a2,2,0,0,0,1.77-1.09l2.9-6.51a1.24,1.24,0,0,0-.65-1.64l-2.49-1.07a1.55,1.55,0,0,1-.86-1.72,28.77,28.77,0,0,0,.54-3.1,3.91,3.91,0,0,1,1-2.11L208,45.5A2.54,2.54,0,0,0,208.75,43.41ZM188.24,68.13c-5.2,4.09-10.18,3-11.12-2.49s2.51-13.21,7.71-17.3,10.19-3,11.13,2.48S193.45,64,188.24,68.13Z" style="fill: rgb(186, 104, 200); transform-origin: 186.519px 58.2469px;" id="elbkr2cisw7vo" class="animable"></path><g id="elbo9bl3oedhi"><path d="M208.75,43.41l-.8-4.64a.76.76,0,0,0-1.27-.55L202.43,41a1.23,1.23,0,0,1-1.71-.38,8.31,8.31,0,0,0-.82-1,2.1,2.1,0,0,1-.5-2l2.17-5.86a1.08,1.08,0,0,0-.8-1.46l-3.2-.72a1.76,1.76,0,0,0-1.82.84l-3,5.74a3.14,3.14,0,0,1-1.82,1.37,16.18,16.18,0,0,0-2,.65,1.09,1.09,0,0,1-1.52-.69l-1.08-3.59a.8.8,0,0,0-1.36-.43l-4.8,3.77a2.74,2.74,0,0,0-.91,2l.29,4.57a3.62,3.62,0,0,1-.75,2.21C178,47,177.29,48,176.59,49a2.47,2.47,0,0,1-2,1l-3.09-.15a2,2,0,0,0-1.77,1.09l-2.9,6.5a1.23,1.23,0,0,0,.64,1.65L170,60.12a1.55,1.55,0,0,1,.86,1.72,26.81,26.81,0,0,0-.53,3.1,3.88,3.88,0,0,1-1,2.11L165,71a2.59,2.59,0,0,0-.71,2.1l.8,4.64a.76.76,0,0,0,1.26.55l4.26-2.8a1.23,1.23,0,0,1,1.7.39,9.1,9.1,0,0,0,.83,1,2.12,2.12,0,0,1,.5,2l-2.17,5.86a1.08,1.08,0,0,0,.79,1.46l3.21.71a1.71,1.71,0,0,0,1.81-.84l3-5.74A3.11,3.11,0,0,1,182.16,79a15.1,15.1,0,0,0,2-.65,1.09,1.09,0,0,1,1.51.69l1.09,3.6a.8.8,0,0,0,1.35.43l4.8-3.78a2.69,2.69,0,0,0,.92-2l-.29-4.56a3.6,3.6,0,0,1,.75-2.21c.78-1,1.53-1.93,2.23-3a2.49,2.49,0,0,1,1.95-1l3.09.16a2,2,0,0,0,1.77-1.09l2.9-6.51a1.24,1.24,0,0,0-.65-1.64l-2.49-1.07a1.55,1.55,0,0,1-.86-1.72,28.77,28.77,0,0,0,.54-3.1,3.91,3.91,0,0,1,1-2.11L208,45.5A2.54,2.54,0,0,0,208.75,43.41ZM188.24,68.13c-5.2,4.09-10.18,3-11.12-2.49s2.51-13.21,7.71-17.3,10.19-3,11.13,2.48S193.45,64,188.24,68.13Z" style="fill: rgb(255, 255, 255); opacity: 0.55; transform-origin: 186.519px 58.2469px;" class="animable"></path></g><g id="elziywi5sile"><g style="opacity: 0.55; transform-origin: 186.505px 58.2107px;" class="animable"><path d="M197.26,30.28h0l.14,0,3.21.72a.31.31,0,0,1,.24.44l-2.17,5.86a2.87,2.87,0,0,0,.66,2.82,8.55,8.55,0,0,1,.76.93,2.08,2.08,0,0,0,1.68.91,2,2,0,0,0,1.07-.33l4.25-2.79s.05,0,.07,0a.15.15,0,0,1,0,.08l.8,4.64a1.86,1.86,0,0,1-.47,1.4l-4.26,3.91A4.63,4.63,0,0,0,202,51.43a28.1,28.1,0,0,1-.52,3,2.32,2.32,0,0,0,1.3,2.6l2.49,1.06a.47.47,0,0,1,.25.63l-2.9,6.51a1.26,1.26,0,0,1-1,.63h0l-3.08-.15h-.12a3.25,3.25,0,0,0-2.51,1.32,35.22,35.22,0,0,1-2.18,2.89,4.44,4.44,0,0,0-.93,2.75l.29,4.57a1.93,1.93,0,0,1-.62,1.39l-4.8,3.77-.1.07a.61.61,0,0,1,0-.11l-1.08-3.6a1.83,1.83,0,0,0-1.77-1.33,2.07,2.07,0,0,0-.77.15,14.61,14.61,0,0,1-1.87.62A3.86,3.86,0,0,0,179.66,80l-3,5.74a1,1,0,0,1-.83.46h-.15l-3.2-.72a.38.38,0,0,1-.24-.16.36.36,0,0,1,0-.29l2.17-5.86a2.88,2.88,0,0,0-.67-2.82,7.51,7.51,0,0,1-.75-.92,2.08,2.08,0,0,0-1.69-.91,2,2,0,0,0-1.07.32L166,77.61l-.07,0s0-.05,0-.08l-.8-4.64a1.84,1.84,0,0,1,.48-1.4l4.25-3.91A4.7,4.7,0,0,0,171.1,65a26.18,26.18,0,0,1,.52-3,2.33,2.33,0,0,0-1.3-2.59l-2.5-1.07a.47.47,0,0,1-.26-.26.52.52,0,0,1,0-.37l2.91-6.5a1.24,1.24,0,0,1,1-.64h0l3.09.16h.11a3.25,3.25,0,0,0,2.51-1.33c.69-1,1.43-2,2.19-2.89a4.35,4.35,0,0,0,.92-2.75L180,39.2a2,2,0,0,1,.63-1.38l4.8-3.78.09-.07a.26.26,0,0,1,.06.12l1.08,3.59A1.83,1.83,0,0,0,188.47,39a2,2,0,0,0,.76-.16,15.88,15.88,0,0,1,1.88-.62,3.94,3.94,0,0,0,2.31-1.75l3-5.74a1,1,0,0,1,.83-.47m-15,41.08a10.77,10.77,0,0,0,6.46-2.63c5.39-4.24,9-12.33,8-18-.6-3.5-2.8-5.59-5.9-5.59a10.77,10.77,0,0,0-6.45,2.63c-5.39,4.24-9,12.34-8,18,.6,3.5,2.81,5.59,5.9,5.59m15-41.84a1.77,1.77,0,0,0-1.51.87l-3,5.74a3.14,3.14,0,0,1-1.82,1.37,16.18,16.18,0,0,0-2,.65,1.18,1.18,0,0,1-.48.1,1.07,1.07,0,0,1-1-.79l-1.08-3.59a.81.81,0,0,0-.76-.66,1,1,0,0,0-.6.23l-4.8,3.77a2.74,2.74,0,0,0-.91,2l.29,4.57a3.62,3.62,0,0,1-.75,2.21C178,47,177.29,48,176.59,49a2.52,2.52,0,0,1-1.88,1h-.07l-3.09-.15h-.07a2,2,0,0,0-1.7,1.09l-2.9,6.5a1.23,1.23,0,0,0,.64,1.65L170,60.12a1.55,1.55,0,0,1,.86,1.72,26.81,26.81,0,0,0-.53,3.1,3.88,3.88,0,0,1-1,2.11L165,71a2.59,2.59,0,0,0-.71,2.1l.8,4.64c.08.47.37.73.72.73a1,1,0,0,0,.54-.18l4.26-2.8a1.18,1.18,0,0,1,.64-.2,1.31,1.31,0,0,1,1.06.59,9.1,9.1,0,0,0,.83,1,2.12,2.12,0,0,1,.5,2l-2.17,5.86a1.08,1.08,0,0,0,.79,1.46l3.21.71a1.06,1.06,0,0,0,.31,0,1.73,1.73,0,0,0,1.5-.88l3-5.74A3.11,3.11,0,0,1,182.16,79a15.1,15.1,0,0,0,2-.65,1.37,1.37,0,0,1,.48-.1,1.06,1.06,0,0,1,1,.79l1.09,3.6a.82.82,0,0,0,.76.66,1,1,0,0,0,.59-.23l4.8-3.78a2.69,2.69,0,0,0,.92-2l-.29-4.56a3.6,3.6,0,0,1,.75-2.21c.78-1,1.53-1.93,2.23-3a2.48,2.48,0,0,1,1.87-1h.08l3.09.16h.07a2,2,0,0,0,1.7-1.09l2.9-6.51a1.24,1.24,0,0,0-.65-1.64l-2.49-1.07a1.55,1.55,0,0,1-.86-1.72,28.77,28.77,0,0,0,.54-3.1,3.91,3.91,0,0,1,1-2.11L208,45.5a2.54,2.54,0,0,0,.72-2.09l-.8-4.64a.76.76,0,0,0-.73-.73.94.94,0,0,0-.54.18L202.43,41a1.13,1.13,0,0,1-.65.2,1.31,1.31,0,0,1-1.06-.58,8.31,8.31,0,0,0-.82-1,2.1,2.1,0,0,1-.5-2l2.17-5.86a1.08,1.08,0,0,0-.8-1.46l-3.2-.72a1.63,1.63,0,0,0-.31,0Zm-15,41.08c-2.61,0-4.59-1.72-5.14-5-1-5.46,2.51-13.21,7.71-17.3a10,10,0,0,1,6-2.47c2.61,0,4.59,1.71,5.15,5,.94,5.47-2.51,13.22-7.72,17.31a10,10,0,0,1-6,2.47Z" style="fill: rgb(255, 255, 255); transform-origin: 186.505px 58.2107px;" id="elgy4n7lgdbo" class="animable"></path></g></g></g></g><g id="freepik--character-2--inject-23" class="animable" style="transform-origin: 365.143px 237.017px;"><g id="freepik--Character--inject-23" class="animable" style="transform-origin: 365.143px 237.017px;"><g id="freepik--Bottom--inject-23" class="animable" style="transform-origin: 311.411px 318.369px;"><path d="M322.08,313.84H292.51c-4.54,8.72-9.25,17.93-10.5,20.39a52.45,52.45,0,0,1-3.94,6.38c-.81,1.16-2,1.72-2.29,3.08-1.4,6,2.63,15.67,6.41,20.66a13.3,13.3,0,0,0,3.69,3.48A7.85,7.85,0,0,0,290.8,369a3.23,3.23,0,0,0,2.56-1.49,3.92,3.92,0,0,0,.16-2.23,67.64,67.64,0,0,1-1-8.26c-.08-5.87,3.52-11.57,7.36-16C302.56,338,312.71,325.49,322.08,313.84Z" style="fill: rgb(255, 189, 167); transform-origin: 298.788px 341.438px;" id="el0hhduzuokq7" class="animable"></path><path d="M347.82,216.84s3.44,26.57,6,51.5c1.44,14-.3,18.09-3.89,23.4-4.46,6.61-12,13.21-19.58,20.7-9,8.9-28.89,27.69-32.12,31.26,0,0-11.11-3-15.94-11.51,0,0,6.8-15.48,13.21-27.74s12.79-21.74,12.79-21.74l-14.16-65.87Z" style="fill: rgb(69, 90, 100); transform-origin: 318.308px 280.27px;" id="ely20l0di1nvd" class="animable"></path><path d="M286.86,337.12l-1-.36c4.63-12.16,23-46.4,30.4-52.75l.7.77C309.79,290.92,291.35,325.36,286.86,337.12Z" style="fill: rgb(55, 71, 79); transform-origin: 301.41px 310.565px;" id="eljukjt08x9r" class="animable"></path><path d="M285.4,325c1.7,4,12.46,14,17.63,13.2l-6,7c-4.73.07-12.84-6.94-15.36-12Z" style="fill: rgb(55, 71, 79); transform-origin: 292.35px 335.1px;" id="elhyb4xgag34s" class="animable"></path><path d="M294.14,216.84h0l14.16,65.87s-2.76,4.13-6.25,10l-.43.74-.38.64c-1,1.64-2,3.42-3,5.29,0,0,1.86,8.68,1.95,9.07.3,1.29-3.19,6.41-1.52,22.27.33,3.05,1.31,7.49,1.88,10.34a7.36,7.36,0,0,1,1.67-1.4c7.12-7,21-20.2,28.15-27.24,1.1-1.08,2.19-2.15,3.28-3.19.27-5.26.71-15.54.24-20.92-.54-6.26-4.3-37.43-4.3-37.43a26.2,26.2,0,0,0,7.38-6.13c2.85-3.24,5.86-11.16,5.86-11.16s.62-2.86,1.83-8.07Z" style="fill: rgb(55, 71, 79); transform-origin: 319.4px 278.95px;" id="el4c0on44zl6w" class="animable"></path><path d="M270.43,347.59c-.82-.23-1.76,2.65-1.92,3.59s1.2,4.92,2.2,7,2.83,4.82,3.49,8.07c.63,3.06.11,8.74,2.44,13.1s8.58,9.25,17.24,9.69c2.65.13,5.9-.95,6.66-1.72a3.88,3.88,0,0,0,1.33-2.94Z" style="fill: rgb(38, 50, 56); transform-origin: 285.184px 368.314px;" id="elfe1womzm3v" class="animable"></path><path d="M276.29,368.18a22,22,0,0,0-2.88-8.46c-1.67-3.32-4.34-7.68-3.89-11.4a12.46,12.46,0,0,1,5-5.66c2.7-1.84,3.28-4.3,4.77-3.76l-.66,1a42.51,42.51,0,0,0,3.25,5.38,3.07,3.07,0,0,1,.48,2.64,8.46,8.46,0,0,0,.21,4.59,13.87,13.87,0,0,1,1-2.75,2.94,2.94,0,0,1,2-1.7c1.73-.54,4.13.58,5.37,1.18,1.88.91,4.12,1.72,4.92,3.23.68,1.29-.6,3.06-1.19,4.16-1.64,3-.57,6.72.35,9.81,1,3.31,2.66,8,4.82,10.76s3.87,4.14,2.05,7.25a6,6,0,0,1-2.74,2.18,9.62,9.62,0,0,1-3.45.71,20.2,20.2,0,0,1-13.49-4.39,15.93,15.93,0,0,1-4.06-5.57C277,374.93,276.7,372.05,276.29,368.18Z" style="fill: rgb(55, 71, 79); transform-origin: 286.064px 363.092px;" id="ela23d4fg9wnf" class="animable"></path><path d="M297.91,374a18,18,0,0,0,1.92,3.16c2.19,2.79,3.86,4.14,2,7.25a6,6,0,0,1-2.74,2.18,9.62,9.62,0,0,1-3.45.71,20.2,20.2,0,0,1-13.49-4.39,14,14,0,0,1-3.46-4.45C278.7,374.84,289.93,371.3,297.91,374Z" style="fill: rgb(69, 90, 100); transform-origin: 290.661px 380.184px;" id="eljk7ca4no8x" class="animable"></path><path d="M329.79,390.7c-3.62-5.73-2.71-8.23-2.67-12.31.05-6,.38-10.8.56-16.3q.38-10.83.8-21.65H305.12c1.3,11.74,2,22.62,2.59,29,.78,9,1.77,14,1.38,15.71-.28,1.27-1.12,3.3-.6,4.27.7,1.3,1.83,1.9,3.41,3.72a66.48,66.48,0,0,0,5.8,6,19.19,19.19,0,0,0,6.3,3.7c2.82,1.06,6.15,1.87,9.08,1.15,1-.26,3.35-.86,3.54-1.88a3.24,3.24,0,0,0-.77-2.22C333,395.53,332.57,395.11,329.79,390.7Z" style="fill: rgb(255, 189, 167); transform-origin: 320.871px 372.352px;" id="elb6d18w9f5jw" class="animable"></path><path d="M286.55,216.58s-1,11.45-.75,17.85a126.48,126.48,0,0,0,4.71,29.16c2.48,8.7,11.7,40.94,12.42,44.07-1.36,6.67-2.75,12.55-.9,27.27,2.68,21.23,6.16,40,6.16,40s12.55,2.62,19.63-1.12c0,0,4.37-59.42,4.38-73.24,0-12-6.05-51.67-6.05-51.67s20.53-9,21.67-32.08Z" style="fill: rgb(69, 90, 100); transform-origin: 316.79px 296.201px;" id="els4ogmxaqix" class="animable"></path><g id="eldpw26jxpkma"><path d="M308.56,303.61c-.5-2.43-2-8.43-3.89-16-3.17-12.76-7.52-30.23-8.9-38-1.66-9.25-.67-28.38-.66-28.57l-1.06-.06c0,.19-1,19.43.67,28.8,1.39,7.8,5.57,24.58,8.92,38.07,1.81,7.28,3.38,13.58,3.88,16,.56,2.72.22,5.18-.26,8.58a83.17,83.17,0,0,0-.5,21.81c1,10.27,4.09,30.58,5.84,41.68l1.09.14c-1.73-11-4.88-31.57-5.87-41.91a81.91,81.91,0,0,1,.5-21.58C308.79,309.15,309.16,306.49,308.56,303.61Z" style="opacity: 0.2; transform-origin: 303.722px 298.52px;" class="animable"></path></g><path d="M306.63,366c3.95,2.2,18.12,2.65,21.83-1.1l-.55,9.15c-3.79,2.94-14.6,3.61-19.91,1Z" style="fill: rgb(55, 71, 79); transform-origin: 317.545px 370.789px;" id="elnqt43kmkwvb" class="animable"></path><path d="M307.7,396.56c-.32.27-.34,2.23.11,3.18s1.9,2,4.13,3.27,5.4,2.05,7.5,5c1.48,2.13,4.36,6.82,9.22,9.38s11.32,3.81,17.25,1.7,6.43-4.65,6.27-6.87Z" style="fill: rgb(38, 50, 56); transform-origin: 329.834px 408.359px;" id="eltdbsjn8kgg" class="animable"></path><path d="M331.06,387.58a6.25,6.25,0,0,0,1.35,2.86c1.87,2.95,5,5.61,7.56,8a80.61,80.61,0,0,0,8.75,6.87c2.52,1.74,4.2,3.61,4.13,5.25-.23,5.09-6.44,7.59-12.91,7.68A21,21,0,0,1,329,415.34,21.26,21.26,0,0,1,324,410.7c-3-3.74-3.59-5.73-7.1-7.67-3-1.65-6.27-1.93-9.24-6-1.16-2.78.08-5.84.42-8.7a27.8,27.8,0,0,0-.1-3.87,1.57,1.57,0,0,1,1.17-1.64c0,.26.13,1.26.13,1.26a5,5,0,0,0,2.19,1.78c1.56.72,3,0,4,1.25A9.71,9.71,0,0,1,316.5,389a9.54,9.54,0,0,0,1.71,2.53,15.1,15.1,0,0,1-.53-2.63c0-1.43-.16-2.39.6-2.92a18.75,18.75,0,0,1,3.57-1.62,23.63,23.63,0,0,1,5.46-1.34c1.29-.23,2.41-.2,3.21.89.55.74.49,2.49.54,3.54Z" style="fill: rgb(55, 71, 79); transform-origin: 330.013px 400.531px;" id="elfscikr02d7" class="animable"></path><path d="M345.61,403c1.21.91,2.42,1.79,3.6,2.6,2.51,1.75,4.19,3.61,4.12,5.25-.22,5.09-6.44,7.59-12.91,7.68a20.91,20.91,0,0,1-10.91-2.91c-.44-.27-.88-.58-1.3-.9C327.78,411.08,335,402.91,345.61,403Z" style="fill: rgb(69, 90, 100); transform-origin: 340.762px 410.765px;" id="eljrhsg1l6ec" class="animable"></path></g><g id="freepik--Top--inject-23" class="animable" style="transform-origin: 365.143px 144.749px;"><g id="freepik--Arm--inject-23" class="animable" style="transform-origin: 369.048px 155.264px;"><g id="freepik--arm--inject-23" class="animable" style="transform-origin: 369.168px 157.212px;"><path d="M386.74,144.06l13.5,5.29c-2,7.52-2.48,10.75-4.08,17.67-2.24,9.69-2.91,13.37-5,18.19-1.68,3.95-4.3,9-14.39,5-12.21-4.82-33.75-13.54-33.75-13.54L332.59,148s8.31.21,13.52,2.63c8.88,4.13,29.32,13.75,29.32,13.75C375.49,163.63,386.74,144.06,386.74,144.06Z" style="fill: rgb(255, 189, 167); transform-origin: 366.415px 167.867px;" id="el7xduiaws6j3" class="animable"></path><path d="M405.54,130.88c1.24,9.7-3.47,15.05-5.3,18.47,0,0-9.43,2.5-13.95-4.45,1.51-2.77,2.32-4.31.18-7a22.41,22.41,0,0,1-2-2.67c-1.34-2.29-2-4.06-3.36-6a1.47,1.47,0,0,1-.36-1.53,1.09,1.09,0,0,1,1-.67,2.46,2.46,0,0,1,1,.18,12,12,0,0,1,3.4,2.43.46.46,0,0,0,.23.14c.22,0,.37-.23.43-.44.48-1.71.11-3.58.7-5.25a1.88,1.88,0,0,1,.29-.54c.82-1,2.77-.84,3.91-.68a10.24,10.24,0,0,1,4.61,1.89C400.82,128,405.54,130.88,405.54,130.88Z" style="fill: rgb(240, 153, 122); transform-origin: 393.207px 136.269px;" id="elvaxequj038" class="animable"></path><path d="M375.43,164.42c-.7,4.72-.42,11.35,1.85,15.82-5.48-7.11-4.19-16.92-4.19-16.92Z" style="fill: rgb(240, 153, 122); transform-origin: 375.119px 171.78px;" id="elo29cwb9xzel" class="animable"></path></g><path d="M366.89,160.08s-6.69-3.66-15.71-7.72-11.07-5.44-18.83-5.15l6.87,28.6S351,180.15,362,184.58C366.75,176.77,367.71,169.33,366.89,160.08Z" style="fill: rgb(55, 71, 79); transform-origin: 349.751px 165.876px;" id="el4q6qmsm0al4" class="animable"></path><g id="freepik--Hand--inject-23" class="animable" style="transform-origin: 395.155px 128.418px;"><path d="M391.83,120.35c-1.67-1.78-1.95-1.7-3.1-1.14a6.25,6.25,0,0,0-3.54,4.47c-.29,1.73-.66,3.45-.38,4.42s2.28.59,3.22-1.54c1.49-3.36,2.43-3.15,2.43-3.15a46,46,0,0,0-1.69,4.38,33.48,33.48,0,0,0-.25,5.31c-.06,1.52,1.79,2.19,3-.19,0,0-.07,1.93-.11,2.8-.07,2,.81,2.81,2.28,1.55a2.88,2.88,0,0,0,1-1.59s-.41,2,.26,2.2c1.9.5,2.66-.65,4.66-4.5.56-1.09,2.29-2.26,2.88-2.75l3.11.26L404.28,127a3.31,3.31,0,0,0-3.38-2s.48-2.22-.86-2.63a7.25,7.25,0,0,0-3.06,0,2.49,2.49,0,0,0-2-1.68,4.06,4.06,0,0,0-2.58.33Z" style="fill: rgb(255, 189, 167); transform-origin: 395.155px 128.418px;" id="el0mpei1j8fwyg" class="animable"></path><path d="M391.47,132.91a12.72,12.72,0,0,1,.22-2.51,8.18,8.18,0,0,1,1.23-2.24,28.92,28.92,0,0,1,3.16-3.84,29.71,29.71,0,0,1-2.55,4.25,12.65,12.65,0,0,0-1.3,2C392,131.29,391.78,132.14,391.47,132.91Z" style="fill: rgb(240, 153, 122); transform-origin: 393.775px 128.615px;" id="eluvb5fjkcgkd" class="animable"></path><path d="M394.63,135.67a5.51,5.51,0,0,1,.45-2.68,14.38,14.38,0,0,1,1.3-2.38,25.62,25.62,0,0,1,3.41-4.15A49.94,49.94,0,0,1,397,131,14.15,14.15,0,0,0,394.63,135.67Z" style="fill: rgb(240, 153, 122); transform-origin: 397.201px 131.065px;" id="elsvfz7631xqd" class="animable"></path></g></g><g id="freepik--top--inject-23" class="animable" style="transform-origin: 315.259px 191.442px;"><g id="freepik--Chest--inject-23" class="animable" style="transform-origin: 315.259px 191.442px;"><path id="freepik--chest--inject-23" d="M305.77,150.17c-7.16,1.66-15.54,5.29-19.9,7.26a38.72,38.72,0,0,0-4.09,21.89c.39,4,3.65,11.2,4.56,23.38.51,6.84-.7,10.37-1.46,26.09,0,0,8.23,8.77,34.6,6.44,19.88-1.75,29.48-13,29.48-13s-1.57-24.85-3-40.68c-1.9-21.24-5.88-31.44-13.62-34.29C326.17,147.38,314.43,148.15,305.77,150.17Z" style="fill: rgb(245, 245, 245); transform-origin: 315.259px 191.442px;" class="animable"></path></g><path d="M303.48,188.08a.25.25,0,0,1-.23-.06.43.43,0,0,1-.13-.25L302,178.59a.41.41,0,0,1,.05-.29.34.34,0,0,1,.21-.17l3.42-.83a2.51,2.51,0,0,1,1.27,0,2.09,2.09,0,0,1,.89.5,2.38,2.38,0,0,1,.55.81,3.09,3.09,0,0,1,.25.88,2.93,2.93,0,0,1,0,.78,3.06,3.06,0,0,1-.37,1.08,1.63,1.63,0,0,1-.19.27,2.63,2.63,0,0,1,.77.68,2.74,2.74,0,0,1,.47,1.31,3.84,3.84,0,0,1,0,1.12,3.54,3.54,0,0,1-.35,1.07,3,3,0,0,1-.7.88,2.49,2.49,0,0,1-1.05.53Zm3.57-8.17a1,1,0,0,0-.38-.75,1.15,1.15,0,0,0-.92-.06l-2.05.5.28,2.19,2-.5a1.38,1.38,0,0,0,.84-.49A1.27,1.27,0,0,0,307.05,179.91ZM304.51,186l2.14-.52a1.37,1.37,0,0,0,.9-.56,1.41,1.41,0,0,0,.18-.94,1.18,1.18,0,0,0-.42-.81,1.08,1.08,0,0,0-1-.12l-2.15.53Z" style="fill: rgb(224, 224, 224); transform-origin: 305.677px 182.653px;" id="elcia41s2kheh" class="animable"></path><path d="M313.16,175.46a2.71,2.71,0,0,1,2.31.29,3,3,0,0,1,1,2.11,3.91,3.91,0,0,1-.16,1.86,3,3,0,0,1-1,1.37l2,3.12a.53.53,0,0,1,.06.14.39.39,0,0,1-.05.24.26.26,0,0,1-.17.14l-1,.24a.38.38,0,0,1-.36-.05,1.12,1.12,0,0,1-.19-.21l-1.94-2.94-1.54.37.42,3.31a.48.48,0,0,1-.06.29.29.29,0,0,1-.21.17l-.93.23a.26.26,0,0,1-.24-.06.4.4,0,0,1-.13-.25l-1.16-9.18a.38.38,0,0,1,.06-.29.33.33,0,0,1,.2-.17Zm-1.17,4.9,1.68-.41a1.93,1.93,0,0,0,1-.54,1.37,1.37,0,0,0,.26-1.17c-.07-.53-.25-.86-.53-1a1.74,1.74,0,0,0-1.09,0l-1.68.4Z" style="fill: rgb(224, 224, 224); transform-origin: 313.588px 180.736px;" id="elteb80nb3nw" class="animable"></path><path d="M325.92,182.11l-4-8.28a1.18,1.18,0,0,0-.21-.33.31.31,0,0,0-.29-.05l-1.28.31a.37.37,0,0,0-.26.19,1.37,1.37,0,0,0-.12.4L318.09,184a.17.17,0,0,0,0,.1.35.35,0,0,0,.12.25.27.27,0,0,0,.24.06l.83-.2a.46.46,0,0,0,.31-.2.82.82,0,0,0,.1-.27l.3-1.69.19-1.11,3-.73.45.94.7,1.46a.49.49,0,0,0,.16.2c.07.07.18.08.34,0l.83-.2a.32.32,0,0,0,.21-.17.48.48,0,0,0,.06-.29Zm-4.84-6.32,1.34,2.8-1.91.46Z" style="fill: rgb(224, 224, 224); transform-origin: 322.008px 178.926px;" id="elr03d701x2yo" class="animable"></path><path d="M332.31,181.06A.35.35,0,0,1,332,181l-.17-.16-4-5.12.75,5.85a.52.52,0,0,1-.06.3.33.33,0,0,1-.21.16l-.94.23a.25.25,0,0,1-.23-.06A.36.36,0,0,1,327,182l-1.17-9.18a.49.49,0,0,1,.06-.29.35.35,0,0,1,.21-.17l.81-.19a.35.35,0,0,1,.32,0,1.42,1.42,0,0,1,.17.16l4,5.12-.74-5.85a.42.42,0,0,1,0-.29.37.37,0,0,1,.21-.17l.94-.23a.25.25,0,0,1,.23.06.34.34,0,0,1,.13.25l1.17,9.18a.49.49,0,0,1-.06.29.32.32,0,0,1-.21.17Z" style="fill: rgb(224, 224, 224); transform-origin: 329.585px 176.585px;" id="eleahrxvxshb" class="animable"></path><path d="M337.16,169.62a3.49,3.49,0,0,1,1.52-.08,2.48,2.48,0,0,1,1.16.53,3.11,3.11,0,0,1,.8,1.08,6.28,6.28,0,0,1,.48,1.55q.18,1,.27,2.1a7.15,7.15,0,0,1-.07,1.69,4.31,4.31,0,0,1-.48,1.39,3.34,3.34,0,0,1-.94,1,4,4,0,0,1-1.42.64l-2.92.71a.26.26,0,0,1-.24-.06.37.37,0,0,1-.12-.25L334,170.78a.49.49,0,0,1,.06-.29.33.33,0,0,1,.2-.17Zm2.4,3.46a3.21,3.21,0,0,0-.26-.81,1.66,1.66,0,0,0-.44-.59,1.39,1.39,0,0,0-.66-.31,2.07,2.07,0,0,0-.88,0l-1.55.38.81,6.4,1.61-.4a2.15,2.15,0,0,0,.81-.36,1.94,1.94,0,0,0,.52-.59,2.34,2.34,0,0,0,.27-.77,3.74,3.74,0,0,0,0-.89A21.12,21.12,0,0,0,339.56,173.08Z" style="fill: rgb(224, 224, 224); transform-origin: 337.704px 174.865px;" id="el66tptfyjte4" class="animable"></path></g><path d="M464.89,176.15l-26.61-48.09a20.64,20.64,0,0,0-7.21-7.93L317.23,54.4a2.83,2.83,0,0,0-2.9-.23l-4.28,2.48c-.93.54-1.53,1.79-1.53,3.57v69.86c0,3.26,2,7,4.43,8.45l113.9,65.65c2.56,1.48,5,1.68,7,.56l4.29-2.48.24-.14,26.55-17.3C466.78,183.58,466.78,179.58,464.89,176.15Z" style="fill: rgb(69, 90, 100); transform-origin: 387.416px 129.665px;" id="el61phi90fv9d" class="animable"></path><path d="M426.85,204.18,313,138.53c-2.45-1.41-4.43-5.19-4.43-8.45V60.22c0-3.26,2-4.75,4.43-3.34l113.84,65.73a20.54,20.54,0,0,1,7.21,7.92l26.61,48.09c1.89,3.43,1.89,7.43,0,8.67l-26.55,17.3C432.1,205.87,429.52,205.73,426.85,204.18Z" style="fill: rgb(186, 104, 200); transform-origin: 385.324px 130.902px;" id="el75wpu1wd0fp" class="animable"></path><g id="el36xj0ddhjkq"><path d="M426.85,204.18,313,138.53c-2.45-1.41-4.43-5.19-4.43-8.45V60.22c0-3.26,2-4.75,4.43-3.34l113.84,65.73a20.54,20.54,0,0,1,7.21,7.92l26.61,48.09c1.89,3.43,1.89,7.43,0,8.67l-26.55,17.3C432.1,205.87,429.52,205.73,426.85,204.18Z" style="fill: rgb(255, 255, 255); opacity: 0.5; transform-origin: 385.324px 130.902px;" class="animable"></path></g><path d="M337.81,111.1v10.29c0,.82-.53,1.17-1.58,1a8.8,8.8,0,0,1-3.38-1.22,12.35,12.35,0,0,1-5.26-6.08,26.74,26.74,0,0,1-1.72-10.41c0-4.22.58-7,1.76-8.42s3-1.39,5.35,0a12.46,12.46,0,0,1,2.17,1.6,11.32,11.32,0,0,1,1.72,1.9,2.92,2.92,0,0,1,.65,1.5,2.6,2.6,0,0,1-.49,1.39c-.34.51-.63.69-.9.54a4.84,4.84,0,0,1-.56-.64,12.14,12.14,0,0,0-1-1.15,7.38,7.38,0,0,0-1.39-1c-1.29-.74-2.23-.6-2.81.45s-.87,3-.87,5.83a22.77,22.77,0,0,0,.85,6.93,6,6,0,0,0,2.57,3.58,4.92,4.92,0,0,0,1.52.64v-6.06l-1.65-1a1.2,1.2,0,0,1-.53-.67,4.12,4.12,0,0,1-.15-1.23V108a2.51,2.51,0,0,1,.15-1c.11-.18.28-.2.53-.06l4.17,2.41A1.86,1.86,0,0,1,337.81,111.1Z" style="fill: rgb(255, 255, 255); transform-origin: 331.836px 108.819px;" id="elfnea6we5hj9" class="animable"></path><path d="M342.41,124.82a12.54,12.54,0,0,1-1.63-6.33V102c0-.68.45-.76,1.34-.24l.81.47c.9.51,1.34,1.11,1.34,1.78v16.32a6.39,6.39,0,0,0,.74,3,5,5,0,0,0,1.94,2.12,1.65,1.65,0,0,0,1.93.12,2.55,2.55,0,0,0,.75-2.14V107.11c0-.68.44-.76,1.34-.25l.78.46c.9.51,1.34,1.11,1.34,1.79v16.48c0,2.31-.53,3.8-1.61,4.46s-2.59.43-4.53-.69A12,12,0,0,1,342.41,124.82Z" style="fill: rgb(255, 255, 255); transform-origin: 346.935px 115.92px;" id="elf8kxozm933w" class="animable"></path><path d="M356.27,133.55V110.94c0-.7.45-.79,1.34-.28l.86.5a2.16,2.16,0,0,1,1.32,1.81v22.61q0,1-1.32.3l-.86-.5A2.21,2.21,0,0,1,356.27,133.55Z" style="fill: rgb(255, 255, 255); transform-origin: 358.03px 123.252px;" id="elnyfvl4izv9" class="animable"></path><path d="M363.36,138.29a2.5,2.5,0,0,1-.21-1.11V115.26c0-.46.07-.76.21-.87s.37-.09.68.09l4.78,2.76a11.82,11.82,0,0,1,5,5.87,26.83,26.83,0,0,1,1.65,10.22q0,6.25-1.65,8.3t-5,.11L364,139A1.75,1.75,0,0,1,363.36,138.29Zm5.35-.53c1.07.62,1.87.43,2.39-.56s.79-3,.79-5.93a22.86,22.86,0,0,0-.79-6.85,5.63,5.63,0,0,0-2.39-3.32l-2-1.17V136.6Z" style="fill: rgb(255, 255, 255); transform-origin: 369.317px 128.503px;" id="elqiyb6eh95l" class="animable"></path><path d="M378.51,147a2.38,2.38,0,0,1-.21-1.12V124c0-.47.06-.76.21-.88s.36-.08.68.1l7.66,4.42a1.24,1.24,0,0,1,.53.67,4.08,4.08,0,0,1,.16,1.23v.91a2.41,2.41,0,0,1-.16,1c-.11.18-.28.21-.53.06l-5.06-2.92v6.09l4.51,2.61a1.17,1.17,0,0,1,.53.67,4,4,0,0,1,.16,1.23v.91a2.39,2.39,0,0,1-.16,1c-.11.19-.28.21-.53.07l-4.51-2.61v6.65l5.09,2.94a1.17,1.17,0,0,1,.5.64,4,4,0,0,1,.16,1.25v.91a2.4,2.4,0,0,1-.16,1.06c-.11.17-.27.19-.5.06l-7.69-4.44A1.61,1.61,0,0,1,378.51,147Z" style="fill: rgb(255, 255, 255); transform-origin: 382.922px 137.603px;" id="el7ak881a4xj2" class="animable"></path><path d="M390.5,154a2.54,2.54,0,0,1-.21-1.12V130.59c0-.68.45-.76,1.34-.25l.82.47a3.36,3.36,0,0,1,1,.84,1.55,1.55,0,0,1,.31.95v19.64l4.47,2.57a1.21,1.21,0,0,1,.52.68,3.68,3.68,0,0,1,.16,1.22v.91a2.26,2.26,0,0,1-.16,1c-.1.18-.28.21-.52.06l-7.06-4.07A1.64,1.64,0,0,1,390.5,154Z" style="fill: rgb(255, 255, 255); transform-origin: 394.601px 144.393px;" id="elymetlysl0z" class="animable"></path><path d="M401,159.38V136.77c0-.7.45-.79,1.34-.28l.87.5a2.17,2.17,0,0,1,1.31,1.81v22.61c0,.7-.44.8-1.31.29l-.87-.5A2.18,2.18,0,0,1,401,159.38Z" style="fill: rgb(255, 255, 255); transform-origin: 402.76px 149.093px;" id="elo4s2ltvd9g" class="animable"></path><path d="M407.75,163.28V140.66c0-.67.45-.75,1.34-.24l.68.4A2.38,2.38,0,0,1,411,142.4l5.19,15.89c.21.63.49,1.64.82,3h.13a20.34,20.34,0,0,1-.21-2.75V146c0-.68.45-.76,1.34-.24l.52.3c.9.52,1.34,1.11,1.34,1.79v22.61c0,.68-.44.76-1.34.24l-.52-.3a3,3,0,0,1-.79-.63,2.25,2.25,0,0,1-.47-.94l-5.44-16.51c-.17-.52-.41-1.39-.71-2.61h-.13a17.38,17.38,0,0,1,.21,2.5v13c0,.67-.44.75-1.34.24l-.52-.3C408.2,164.55,407.75,164,407.75,163.28Z" style="fill: rgb(255, 255, 255); transform-origin: 413.94px 155.564px;" id="eldz4sajf5ppo" class="animable"></path><path d="M423.58,173.06a2.47,2.47,0,0,1-.21-1.11V150c0-.46.07-.76.21-.87s.37-.09.68.09l7.67,4.43a1.17,1.17,0,0,1,.53.67,4.12,4.12,0,0,1,.15,1.23v.91a2.42,2.42,0,0,1-.15,1c-.11.19-.28.21-.53.07l-5.07-2.93v6.09l4.52,2.61a1.19,1.19,0,0,1,.52.67,3.78,3.78,0,0,1,.16,1.23v.91a2.32,2.32,0,0,1-.16,1c-.1.18-.28.2-.52.06l-4.52-2.6v6.65l5.1,2.94a1.19,1.19,0,0,1,.5.63,4.08,4.08,0,0,1,.15,1.25v.91a2.41,2.41,0,0,1-.15,1.06c-.11.18-.28.2-.5.07l-7.7-4.44A1.75,1.75,0,0,1,423.58,173.06Z" style="fill: rgb(255, 255, 255); transform-origin: 427.993px 163.613px;" id="elhl0q1n3l8d" class="animable"></path><g id="freepik--Head--inject-23" class="animable" style="transform-origin: 302.478px 124.323px;"><path d="M318.31,140.06c.41-4.72,4.65-10,6.41-14.21,1.7-4.08,2.65-7.22,2.12-10.89-.31-2.17-1.93-5-3.6-5.5a10.18,10.18,0,0,0-8.48-12,33.81,33.81,0,0,1-4.57-.88c-1.82-.59-2.33-2-3.85-3.06-2.61-1.87-6.72-1.59-8,1.68-1.79-2-4-1.74-6.49-.88a4.36,4.36,0,0,0-2.93,5.18c-3.55-1.63-6.48,1-6.63,3.06-.11,1.49.31,2.71-.55,4.11-1,1.58-3,1.72-3.75.57-.18,2.12.77,3.65,3,3.35a4.78,4.78,0,0,0-.26,4,4.34,4.34,0,0,0,4.17,2.68,7.46,7.46,0,0,0,1.27,3.11,7.55,7.55,0,0,0,2.87,2.2c3.58,1.36,7.43,1.58,11.2,2l4.48.55c.26,0,1.59,0,1.77.22Z" style="fill: rgb(38, 50, 56); transform-origin: 302.478px 116.211px;" id="eltcnwptxs" class="animable"></path><path d="M324,133c-3.49,2.44-5.64-.41-5.64-.41l2,15.57c7.14,7.43-12.88,11.93-19.65,3.78l-.95-5.83a32.42,32.42,0,0,1-5.45,0A9.39,9.39,0,0,1,286,139.6a42,42,0,0,1-1.78-15.83,13.43,13.43,0,0,0-.12-3.85c-.63-3.37-.17-5.4.47-8.33,3.76-3.57,15.09-5.17,24.2-.6-1.5,4.57,0,9,4,10.64-.06,1.41,0,4.94,2.34,4.69,1.64-.18,1.58-2.26,3.13-4.22s5.46-2.78,7.21-.21C327.86,125.48,327.39,130.6,324,133Z" style="fill: rgb(255, 189, 167); transform-origin: 305.38px 132.234px;" id="el9tzl0ldgzl5" class="animable"></path><path d="M299.69,146.11c5.43-.73,10.53-2.12,13.06-6.59a44.49,44.49,0,0,0,2.93-7.16,28.26,28.26,0,0,1-1.78,8.81c-1.24,2.81-4.84,5.47-13.87,7Z" style="fill: rgb(240, 153, 122); transform-origin: 307.685px 140.265px;" id="el8lrg4bnxa0w" class="animable"></path><path d="M286.19,118.9l3.79-1.38a1.94,1.94,0,0,0-2.52-1.25A2.11,2.11,0,0,0,286.19,118.9Z" style="fill: rgb(38, 50, 56); transform-origin: 288.033px 117.526px;" id="elj7guixvc2uh" class="animable"></path><path d="M287,123.4a1.64,1.64,0,1,0,1.47-1.86A1.68,1.68,0,0,0,287,123.4Z" style="fill: rgb(38, 50, 56); transform-origin: 288.627px 123.173px;" id="elpab6fjl6qh" class="animable"></path><path d="M299.7,123.51a1.64,1.64,0,1,0,1.47-1.85A1.66,1.66,0,0,0,299.7,123.51Z" style="fill: rgb(38, 50, 56); transform-origin: 301.327px 123.293px;" id="el894w4t1w9z9" class="animable"></path><path d="M289.33,129.89l5.89,2.06.84-11.28C293.89,120.09,291.59,125.43,289.33,129.89Z" style="fill: rgb(240, 153, 122); transform-origin: 292.695px 126.288px;" id="elae31cys4jgq" class="animable"></path><path d="M300.54,117.33l3.69,1.65a2.13,2.13,0,0,0-1.07-2.74A2,2,0,0,0,300.54,117.33Z" style="fill: rgb(38, 50, 56); transform-origin: 302.465px 117.533px;" id="el3zng2dld1fd" class="animable"></path><path d="M301.82,133.84l-6.71,2a3.44,3.44,0,0,0,4.3,2.46A3.67,3.67,0,0,0,301.82,133.84Z" style="fill: rgb(177, 102, 104); transform-origin: 298.53px 136.139px;" id="elh5qieedd9bp" class="animable"></path><path d="M301.09,135a4.82,4.82,0,0,1,.84-.06,3.61,3.61,0,0,1-2.52,3.36,3.28,3.28,0,0,1-1.11.13A3.19,3.19,0,0,1,301.09,135Z" style="fill: rgb(242, 143, 143); transform-origin: 300.11px 136.687px;" id="eln1jlitvpij" class="animable"></path></g><g id="freepik--arm--inject-23" class="animable" style="transform-origin: 298.992px 190.81px;"><path d="M314.74,204.6c4.48-.46,6.58-.43,8.27,0s8,1.36,10.26,2c1.42.43.75,2.69-1.63,3.1-1.83.32-5.79-.19-7.62-.25s-6.5,1.61-6.5,1.61Z" style="fill: rgb(240, 153, 122); transform-origin: 324.375px 207.663px;" id="elp0a0udlt6l9" class="animable"></path><path d="M272.74,171.77c1.74-6.39,7.93-12.45,13.45-13.93,6.65,6.74,4.17,26.35,4.17,26.35l-5.5,19.5s11.57,4.5,14.47,4.41,8.73-2.54,11.7-3.23c4-.93,5.12.16,6.31,1.13,3.9,3.19,4.62,4.11,5.19,5.22a2.26,2.26,0,0,1-.16,2.16c1.05.82,2.77,1.8,1.88,3.8a6.31,6.31,0,0,1-.82,1.53,1.46,1.46,0,0,1,.48.87c.3,1.65-3.58,4.48-5.16,4.79-1.11.22-2.19-.31-3.44-1.3-1.05-.84.18-1.7.18-1.7l-1.67-.86c-4.95.4-7.57,3.68-12.52,2.93-1.15-.18-3.78-1-7.79-1.65-12-2-17.32-2.23-23.8-4.31-6.15-2-6.42-4.72-5.08-12C266.48,195.39,269.47,183.72,272.74,171.77Z" style="fill: rgb(255, 189, 167); transform-origin: 294.236px 191.13px;" id="elmlck8gawpre" class="animable"></path><path d="M322.37,213.38l-4.47-4,4.78,3.29A2.34,2.34,0,0,1,322.37,213.38Z" style="fill: rgb(240, 153, 122); transform-origin: 320.29px 211.38px;" id="el31p2clhqmrb" class="animable"></path><path d="M323.43,218.71l-5.4-4.24,5.81,3.57A4,4,0,0,1,323.43,218.71Z" style="fill: rgb(240, 153, 122); transform-origin: 320.935px 216.59px;" id="elk299l9mifbs" class="animable"></path><path d="M320,220.86a7.32,7.32,0,0,1-.92-.24,22.6,22.6,0,0,1-2.12-1.07,2.65,2.65,0,0,1-1.39.69,14,14,0,0,1-1.7.27l1.67.86a2.92,2.92,0,0,1,2.22,0,1.38,1.38,0,0,1,.7.61,2.18,2.18,0,0,1,.22,1,1.83,1.83,0,0,0-.06-1.06,1.37,1.37,0,0,0-.46-.6l.76-.52a4.15,4.15,0,0,0,1.06.21,2.11,2.11,0,0,0,1.19-.21A2.57,2.57,0,0,1,320,220.86Z" style="fill: rgb(240, 153, 122); transform-origin: 317.52px 221.265px;" id="el5ic2gj6upy3" class="animable"></path><path d="M284.86,203.69c-3.17-1.59-10.11-1.49-13.39,2,2.26-3.84,7.13-5.51,13.84-3.6Z" style="fill: rgb(240, 153, 122); transform-origin: 278.39px 203.493px;" id="el875j5ecfldq" class="animable"></path><path d="M286.38,157.2c-5.4,1.46-10.86,4.78-13.64,13.7-2.13,6.85-4.51,17-5.47,20.77,2.31,3.17,13.75,7.25,19.76,5.29l3.55-12.21S293.91,166.6,286.38,157.2Z" style="fill: rgb(55, 71, 79); transform-origin: 279.292px 177.336px;" id="elpjfjw3wv4pg" class="animable"></path></g></g></g></g><g id="freepik--character-1--inject-23" class="animable" style="transform-origin: 171.591px 258.443px;"><g id="freepik--character--inject-23" class="animable" style="transform-origin: 171.591px 258.443px;"><g id="freepik--bottom--inject-23" class="animable" style="transform-origin: 151.684px 313.287px;"><path d="M109.46,377.64c1.2-12.8.27-19.15,1.77-39.16h0c.2-5.13.5-10.62,1-15.5,1.51-16.41,4.16-22,4.47-25.14,0,0,1-25.57,2.81-61.51.87-16.91,5.88-21.93,10-30.82l46.56,1c4.73,22.27,5.18,70.62,4.54,93.46-.32,11.64-5.37,69.75-5.49,71.18-.44,5.07,0,7.09,1.9,9.27,4.08,4.56,10,8.95,15.18,13-.8,2-8,2.71-11.08,1.12a79.74,79.74,0,0,1-11.44-7.64c-4.23-3.28-9.67-5.94-9.63-10.78a4.41,4.41,0,0,0-.13-.87c0-2.83-5.79-41.49-6.13-51.17-.3-8.32,1-22.41,1-22.41l-4.62-35.33s-3.75,20.75-7.39,34.89c-3,11.51-7.88,31.15-11.25,45.32h0c-3.29,16.34-7.24,24.82-8.16,33-.27,2-3.46,21.11-4.47,25.5s-10.62,4.3-11.07-3.29C107.49,396.67,109.23,380.05,109.46,377.64Z" style="fill: rgb(255, 189, 167); transform-origin: 149.993px 306.749px;" id="eldifhm6ngx6o" class="animable"></path><path d="M150.13,266.3,154.6,241s15.19-1.47,20.82-6.65c0,0-7.16,9.66-17.48,11l-4.77,21,1.54,35Z" style="fill: rgb(154, 74, 77); transform-origin: 162.775px 267.85px;" id="el93cdejni0nv" class="animable"></path><path d="M200,399.61c.27,0,.64,2.94-.82,4.17-1.68,1.42-6.6,3.73-13.05,2.83s-9.94-2.94-12.51-5.14-6.16-5.28-9.07-6c-2.71-.63-5.65-1.89-6.51-2.74s-.7-4.58-.7-4.58Z" style="fill: rgb(38, 50, 56); transform-origin: 178.789px 397.481px;" id="elu1wt92robrb" class="animable"></path><path d="M159.75,373.84s-.49,0-.66.87c-.21,1-.46,4-.9,5.7a30,30,0,0,0-.73,9.07c.33,1.91,4.75,3.29,7.57,4.4a35.88,35.88,0,0,1,9.1,5.89c3,2.53,9.38,5.11,13.59,5.22,6.44.16,10.62-1.54,11.93-3.84,1.62-2.84,1.31-5.45-6.05-8.95-1.39-.66-6.28-3.62-7.94-4.7a38.33,38.33,0,0,1-5-3.79,31.69,31.69,0,0,1-2.23-2.26,10.19,10.19,0,0,1-1.85-2.41c-.08-.2-.14-.43-.21-.63a10.63,10.63,0,0,1-.46-1.74c-.12-.61-.18-1.51-.76-1.89a4.94,4.94,0,0,0-2.64-.34,32.17,32.17,0,0,0-4,.75,3.72,3.72,0,0,0-2.77,1.89,5.48,5.48,0,0,0-.64,2.67c0,.44,0,.87,0,1.3,0,.19.07.52-.19.44s-.51-.72-.6-.94c-.2-.49-.33-1-.55-1.49a7.88,7.88,0,0,0-.9-1.57,7.38,7.38,0,0,0-1.16-1.21,11,11,0,0,1-1.26-.83A3,3,0,0,1,159.75,373.84Z" style="fill: rgb(55, 71, 79); transform-origin: 178.916px 389.42px;" id="el25qir0l7gbm" class="animable"></path><path d="M194.79,392.78c-9.32.54-13.23,7.2-13.66,10.75a22.09,22.09,0,0,0,6.59,1.46c6.44.16,10.89-1.53,12.2-3.83C201.45,398.48,201.37,395.35,194.79,392.78Z" style="fill: rgb(255, 255, 255); transform-origin: 190.932px 398.89px;" id="elx8fopg25qr" class="animable"></path><path d="M179.91,393.66a.48.48,0,0,1-.29-.11.46.46,0,0,1-.05-.64c1.31-1.57,6-4.57,9.37-4.16a.45.45,0,1,1-.11.9c-3.16-.37-7.52,2.6-8.57,3.85A.48.48,0,0,1,179.91,393.66Z" style="fill: rgb(240, 240, 240); transform-origin: 184.401px 391.186px;" id="ell180cgs0jco" class="animable"></path><path d="M175.92,391.28a.43.43,0,0,1-.28-.11.45.45,0,0,1-.06-.64c1.31-1.57,6-4.57,9.37-4.16a.45.45,0,1,1-.11.9c-3.15-.37-7.52,2.6-8.56,3.85A.45.45,0,0,1,175.92,391.28Z" style="fill: rgb(240, 240, 240); transform-origin: 180.411px 388.806px;" id="el2wjybcq8nx5" class="animable"></path><path d="M172.24,388.57a.39.39,0,0,1-.29-.11.46.46,0,0,1-.06-.64c1.31-1.57,6-4.57,9.37-4.16a.45.45,0,1,1-.1.9c-3.16-.37-7.53,2.6-8.57,3.85A.44.44,0,0,1,172.24,388.57Z" style="fill: rgb(240, 240, 240); transform-origin: 176.725px 386.096px;" id="elxpzelmogv6g" class="animable"></path><path d="M168.62,385.86a.42.42,0,0,1-.28-.1.46.46,0,0,1-.07-.64c1.81-2.23,6.77-4.61,10.15-4.2a.45.45,0,0,1,.4.5.46.46,0,0,1-.51.4c-3-.36-7.73,1.89-9.33,3.87A.43.43,0,0,1,168.62,385.86Z" style="fill: rgb(240, 240, 240); transform-origin: 173.497px 383.367px;" id="elvrvo28l7h3m" class="animable"></path><path d="M122.32,407.8c-.37,4.64-1.16,7.7-2.86,10.39s-4.83,3.47-8,2.61-7.11-3.08-7.93-7.1-1.28-6.78-.48-11.07Z" style="fill: rgb(38, 50, 56); transform-origin: 112.477px 411.882px;" id="elev919t2puon" class="animable"></path><path d="M109.77,373.79c-1.3.08-1.78,6.42-2.66,12.65-.94,6.67-3,9.39-3.83,14.86-1,6.25,0,9.07,2.14,12.9s9.81,7.72,13.75,2.37c3.22-4.35,3.45-9.25,3.3-15.52a138,138,0,0,1,.76-15.84c.35-4.69,2-9.91.93-10.46-.21,1.05-.41,1.89-.52,2.56a13.67,13.67,0,0,1-.82,2.69c-.14.34-.44.7-.54.13a3.76,3.76,0,0,1,0-1.16c.23-1.73-.64-1.89-1.1-2a59,59,0,0,0-6-1c-1-.09-4.4-.31-4.86.24a3.79,3.79,0,0,0-.47,1.81c-.14.94-.37,1.62-.39,1.33a23.6,23.6,0,0,1,.08-2.5c0-.4.1-1.27.11-1.68S109.74,374.19,109.77,373.79Z" style="fill: rgb(55, 71, 79); transform-origin: 113.703px 396.49px;" id="elemd8sl86kj9" class="animable"></path><path d="M102.84,404.92a15.63,15.63,0,0,0,2.23,9.57c2.11,3.84,10.43,7.74,14.37,2.4,2-2.66,2.54-5.84,2.88-9.09C120.11,403.57,106.54,401.44,102.84,404.92Z" style="fill: rgb(255, 255, 255); transform-origin: 112.548px 411.339px;" id="el0tkn8jqiunfo" class="animable"></path><path d="M119.63,400.93a.58.58,0,0,1-.16-.05s-6-2.63-11.86-1.41a.48.48,0,1,1-.2-.94c6.21-1.29,12.27,1.38,12.5,1.49a.48.48,0,0,1,.21.65A.49.49,0,0,1,119.63,400.93Z" style="fill: rgb(240, 240, 240); transform-origin: 113.6px 399.556px;" id="elueota7qgzk" class="animable"></path><path d="M108,394.81a.48.48,0,0,1-.09-.94c5.86-1.84,12.24,1.25,12.48,1.38a.48.48,0,0,1,.19.66.49.49,0,0,1-.65.19c-.06,0-6.28-3-11.73-1.31A.46.46,0,0,1,108,394.81Z" style="fill: rgb(240, 240, 240); transform-origin: 114.102px 394.721px;" id="elvyz79kocvz" class="animable"></path><path d="M108.3,390.41a.47.47,0,0,1-.4-.32.48.48,0,0,1,.3-.61c6.44-2.15,12.5,1.2,12.72,1.35a.47.47,0,0,1,.15.66.49.49,0,0,1-.67.15s-5.9-3.25-11.89-1.25A.5.5,0,0,1,108.3,390.41Z" style="fill: rgb(240, 240, 240); transform-origin: 114.511px 390.238px;" id="elmfgitat0p9" class="animable"></path><path d="M108.71,386.08a.48.48,0,0,1-.4-.31.49.49,0,0,1,.3-.62c6-2.11,12.55,1.34,12.8,1.49a.48.48,0,0,1-.5.82c-.06,0-6.38-3.36-12-1.4A.38.38,0,0,1,108.71,386.08Z" style="fill: rgb(235, 235, 235); transform-origin: 114.961px 385.999px;" id="elvpnwixh654r" class="animable"></path><path d="M126.2,205.44c-5.73,9.94-8.88,18.1-10.07,48s-1.58,39.09-1.77,42.69-3.77,8.92-4.55,25.7c-1,20.69-.15,37-.15,37s2,3.07,8.78,3.82a17.58,17.58,0,0,0,10.14-1.58s9-31.27,11.59-41.92,9.81-45.7,9.81-45.7l3.49,28.62s-2.12,9.77-.54,25.39,4,28.07,4,28.07a29.35,29.35,0,0,0,10.31,2.21,21.28,21.28,0,0,0,9.45-2.2s5.28-42.92,5.66-60.58,0-62.71-3.43-88.94Z" style="fill: rgb(55, 71, 79); transform-origin: 145.896px 284.133px;" id="elfq7cnemsc39" class="animable"></path><path d="M156.3,239.62,150,273.46l3.49,28.62-1.12-28.95,5.59-27.76c4.28-.93,14.08-5.83,16.89-13.07C168.12,239,156.3,239.62,156.3,239.62Zm-19.48-20.27c.81-2.84,1.67-5.66,2.62-8.5a42.11,42.11,0,0,0-4,8,80,80,0,0,0-2.73,8.54c-.74,2.89-1.36,5.81-1.81,8.76a58,58,0,0,0-.78,8.93c.77-2.89,1.5-5.76,2.22-8.63s1.43-5.74,2.19-8.59S136,222.19,136.82,219.35Zm-4.23-2.24c1-1.72,2-3.44,2.92-5.26a31.51,31.51,0,0,0-4.13,4.44,44,44,0,0,0-3.4,5,38.88,38.88,0,0,0-2.61,5.49,24,24,0,0,0-1.49,5.9l2.83-5.29c1-1.73,1.91-3.46,2.9-5.17S131.6,218.84,132.59,217.11Zm-6,113.32q-2.77,13.74-5.19,27.55,3.5-13.59,6.63-27.24c2.11-9.11,4.12-18.2,6.11-27.36s3.21-18.47,4.31-27.75,2-18.59,2.75-27.91c-1.48,9.23-2.84,18.48-4.2,27.71s-2.81,18.46-4.7,27.57S128.45,321.27,126.63,330.43ZM175.91,285c.1,4.06.25,8.13.1,12.14s-.5,8.09-.79,12.14l-.88,12.17q-.89,12.18-1.49,24.38,1.69-12.1,3-24.25c.83-8.11,1.63-16.18,2.08-24.37.15-8.23-.38-16.34-.93-24.47s-1.39-16.24-2.47-24.31l1,24.39C175.63,276.88,175.81,280.94,175.91,285Z" style="fill: rgb(38, 50, 56); transform-origin: 149.678px 284.415px;" id="el0nq0gd5pdyo" class="animable"></path></g><g id="freepik--top--inject-23" class="animable" style="transform-origin: 171.591px 168.847px;"><path d="M243.23,158a4.24,4.24,0,0,0-2.51-.43,27.89,27.89,0,0,0-4,1.07c-2.05.52-5.34,1.39-7.4.77-.42-.12-1.25-.51-.54-.89a19.23,19.23,0,0,0,2.72-1.57,3.8,3.8,0,0,0,1.58-2.62,1.28,1.28,0,0,0-.23-.9c-.28-.35-.56-.25-.89-.11a9.48,9.48,0,0,1-1.07.33l-2.24.62c-4.35,1.26-8.79,2.89-12,6.2-.46.48-3.54,4.42-5.44,6.6-1.6,2-11.93,12-11.93,12s-5.41-5.88-9.34-10c-7-7.35-9.73-10.28-12.2-12.73-2.16-2.15-5.73-4.73-9.7-5.12l3.48,27.45s13.3,11.49,17.17,14.43c8,6,10.65,7.75,14.72,4.76,4.37-3.21,7.28-6.57,11.48-14.57,3.42-6.53,4.27-8.07,5.48-10.06,1-1.69,3.63-1.64,5-1.71a20.5,20.5,0,0,0,5.65-.94,18.94,18.94,0,0,0,4.64-1.89,6,6,0,0,0,2-1.43,16,16,0,0,1,.85-1.84c.49-.63,1.26-1,1.68-1.69a7.65,7.65,0,0,0,.58-1.77c.28-.95,1-1.36,1.84-1.81a2.91,2.91,0,0,0,1.1-.78C244.11,158.75,243.74,158.31,243.23,158Z" style="fill: rgb(255, 189, 167); transform-origin: 205.96px 175.255px;" id="elujhfc3beczc" class="animable"></path><path d="M166.38,150c5.28.61,6.72,1.38,11.24,5.56s10.11,9.76,10.11,9.76a36.34,36.34,0,0,1-7,13.08c-2,2.27-6.95,5.28-6.95,5.28L168.4,180Z" style="fill: rgb(230, 230, 230); transform-origin: 177.055px 166.84px;" id="el2r2l6dn2iia" class="animable"></path><path d="M199.26,179.05h0a11.89,11.89,0,0,1-1.47-1.59,12.58,12.58,0,0,0-3,12.08A16,16,0,0,1,199.26,179.05Z" style="fill: rgb(240, 153, 122); transform-origin: 196.79px 183.5px;" id="elzhfownqqx18" class="animable"></path><path d="M226.48,160.65a13.92,13.92,0,0,1-6.14,4.67,5.78,5.78,0,0,0,3.91-.89A5.38,5.38,0,0,0,226.48,160.65Z" style="fill: rgb(240, 153, 122); transform-origin: 223.41px 163.01px;" id="elerqqkh3q9au" class="animable"></path><path id="freepik--chest--inject-23" d="M119.14,220.42c1.94-9.34,6.42-16.87,6.38-18.93-.19-8.93-3.82-20-4.65-25.17-1.81-11.28,1.12-22,3.72-24.25l13-3.57s15.2-.17,17.69.06c1.23.11,11.14,1.42,11.14,1.43s3.73,4.53,8.06,10.89c7,10.33,7.73,15.25,6,24.61-2.35,12.83.57,25.4.67,35.15C173.21,229.89,140.24,235.18,119.14,220.42Z" style="fill: rgb(69, 90, 100); transform-origin: 150.206px 189.036px;" class="animable"></path><path d="M129.77,107.32c-.05.28-1.56,1.17-1.84,1.44a9.15,9.15,0,0,0-1.37,1.73,12.17,12.17,0,0,0-1.45,4.52,80.51,80.51,0,0,0-.3,8.07,52.16,52.16,0,0,1-1.14,7.74,26.4,26.4,0,0,0-.72,6.84,8.85,8.85,0,0,0,2.74,6.14,15,15,0,0,1-.2-6.88,14.19,14.19,0,0,0,1,4.18,9.88,9.88,0,0,0,4.83,4.56,25.51,25.51,0,0,0,6.5,1.87,46.77,46.77,0,0,0,11,.73q3.42-.21,6.79-.75a19.64,19.64,0,0,0,8.27-2.86c2.41-1.69,4.18-4.57,3.79-7.49a8.6,8.6,0,0,1,1.31,4.66,9.35,9.35,0,0,0,2-6.61,16.11,16.11,0,0,0-2.13-6.71,32.11,32.11,0,0,1-2.09-4,5.8,5.8,0,0,1-.29-4c.37-.85,1-1.64,1.39-2.51a15.11,15.11,0,0,0,1.48-7.59c-.55-5.36-3.94-12.29-13.82-14.18C147.33,94.67,131.65,96.64,129.77,107.32Z" style="fill: rgb(38, 50, 56); transform-origin: 146.977px 122.038px;" id="el3td0p2zaz5o" class="animable"></path><g id="freepik--head--inject-23" class="animable" style="transform-origin: 148.702px 129.929px;"><path d="M135,134.85a6.18,6.18,0,0,1-5.54-2c-3-3.11-3.26-6.3-1.93-8.45,1.1-1.76,3.83-2.92,5.77-1.75s2.15,2.27,2.95,3.7,2.78.28,2-5.47c4-1.89,3.26-8.46,5.39-11.17,3.34-4.24,8.92-3.21,10.74-2.25a7.39,7.39,0,0,1,7.59-.56c2.7,1.38,4.53,4.34,5.59,14.54,1.09,10.41-.67,17.37-3.09,19.61-1.67,1.54-4.79,2.6-8.53,2.43l.08,5.18s4.72,6.62-8.94,4.76c-6.73-.92-9.6-4.43-9.6-4.43l-.26-15.8S137.09,134.44,135,134.85Z" style="fill: rgb(255, 189, 167); transform-origin: 147.327px 129.929px;" id="el6va4pkwa25c" class="animable"></path><path d="M156,143.47c-5.37-.14-12.6-1.93-14.57-5.32,1.11,3.66,4.92,5.52,8,6.32a32.32,32.32,0,0,0,6.6,1.05Z" style="fill: rgb(240, 153, 122); transform-origin: 148.73px 141.835px;" id="elqniy31crtk" class="animable"></path><path d="M157.59,132.75a3.07,3.07,0,0,1-3.58,2.41,3,3,0,0,1-2.45-3.52Z" style="fill: rgb(177, 102, 104); transform-origin: 154.548px 133.427px;" id="el3s5lqohrtrg" class="animable"></path><path d="M151.55,132.62a3.06,3.06,0,0,0,2.46,2.54,3.32,3.32,0,0,0,1.09,0A3.12,3.12,0,0,0,151.55,132.62Z" style="fill: rgb(242, 143, 143); transform-origin: 153.325px 133.894px;" id="el25yzwldq4ft" class="animable"></path><path d="M164.67,120.76c.34.91-.29,1.22-1.16,1.55s-1.66.53-2-.38a1.69,1.69,0,1,1,3.16-1.17Z" style="fill: rgb(38, 50, 56); transform-origin: 163.059px 121.059px;" id="eln6kvv8zoxz" class="animable"></path><path d="M161.66,120.06a4,4,0,0,1,1.25-.48,3.41,3.41,0,0,1,1.31-.1,4,4,0,0,1,1.33.36s.07.11,0,.11a10.88,10.88,0,0,0-1.19-.1,6.6,6.6,0,0,0-1.46.21,6.18,6.18,0,0,0-1.64.66l-.53.3c-.05,0-.09-.09-.07-.13A3,3,0,0,1,161.66,120.06Z" style="fill: rgb(38, 50, 56); transform-origin: 163.118px 120.238px;" id="el38zo5mi1cfv" class="animable"></path><path d="M147.7,121.56c-.19,1,.48,1.16,1.39,1.34s1.72.26,1.91-.69a1.68,1.68,0,1,0-3.3-.65Z" style="fill: rgb(38, 50, 56); transform-origin: 149.35px 121.607px;" id="ellh72fqcer1" class="animable"></path><path d="M150.57,120.39a4.57,4.57,0,0,0-1.32-.28,3.57,3.57,0,0,0-1.3.11,4,4,0,0,0-1.26.56s-.05.12,0,.11c.35-.09.66-.19,1.16-.28a6.66,6.66,0,0,1,1.48,0,6,6,0,0,1,1.72.39c.19.06.54.2.58.22s.07-.11,0-.15A3.08,3.08,0,0,0,150.57,120.39Z" style="fill: rgb(38, 50, 56); transform-origin: 149.17px 120.657px;" id="elx4zz4adxcjm" class="animable"></path><path d="M164.61,114.94l-4-1.25a2,2,0,0,1,2.57-1.37A2.13,2.13,0,0,1,164.61,114.94Z" style="fill: rgb(38, 50, 56); transform-origin: 162.651px 113.577px;" id="elxkikuforyh" class="animable"></path><path d="M150,114,146,116.09a2.08,2.08,0,0,1,.78-3A2.38,2.38,0,0,1,150,114Z" style="fill: rgb(38, 50, 56); transform-origin: 147.826px 114.442px;" id="elqqq26qiv3ih" class="animable"></path><path d="M169.63,116l-.79,0a24.05,24.05,0,0,0-7.78.67c-2.43.86-3.24,1.71-4.62,1.79s-2.47-.68-5.18-1.25a27.26,27.26,0,0,0-8.35.22l-.83.13a1.24,1.24,0,0,0-.83,1.37,3,3,0,0,0,.93,1.49,1.92,1.92,0,0,1,.32.6,26.66,26.66,0,0,0,1.35,4.18,5.5,5.5,0,0,0,1.19,1.46,5.06,5.06,0,0,0,.58.42l.33.18a4.68,4.68,0,0,0,1,.37l.17,0,.25.06.26,0a7.05,7.05,0,0,0,.84.08h.8c3.42-.17,4.73-1.81,5.45-3.46s.33-3.9,1.91-4h.29c1.19.2,1.21,2.28,2.06,3.74a6.4,6.4,0,0,0,1.25,1.57,2.09,2.09,0,0,0,.28.24.91.91,0,0,0,.16.11l.15.11.15.09.15.09.13.06.08,0a5.08,5.08,0,0,0,1.41.44l.12,0a7.55,7.55,0,0,0,1.68.07c3.21-.19,4.17-2,4.6-3.2a25.49,25.49,0,0,0,.65-4.29,1.2,1.2,0,0,1,.25-.57,2.8,2.8,0,0,0,.6-1.6A1.34,1.34,0,0,0,169.63,116Zm-15.95,6.88a4.56,4.56,0,0,1-1,2.3h0a4.8,4.8,0,0,1-3.63,1.48,4.37,4.37,0,0,1-3.72-1.43l-.13-.15-.11-.16a.71.71,0,0,1-.1-.14l-.09-.13-.06-.11a.41.41,0,0,1-.05-.09l-.09-.16h0l-.22-.46h0l-.11-.27c-.06-.17-.11-.32-.16-.45a.29.29,0,0,0,0-.09l0-.08c-.35-1.11-.84-3.29-.29-3.82s2.07-1.13,4.63-1h.28a9.3,9.3,0,0,1,1.17.13l.46.08a11.77,11.77,0,0,1,1.17.29l.35.12a2.26,2.26,0,0,1,.39.15l.08,0a.61.61,0,0,1,.14.07,2.36,2.36,0,0,1,.81.54C153.91,120.12,153.87,121.58,153.68,122.84Zm14.82-1.29a4.65,4.65,0,0,1-2.12,3.72,4.45,4.45,0,0,1-1.87.5,4.34,4.34,0,0,1-3.94-1.47h0l-.08-.1a.83.83,0,0,1-.08-.12l-.05-.06c0-.05-.07-.11-.11-.17l-.12-.2s0-.07-.05-.1l0-.06a.59.59,0,0,1,0-.08l0-.06a5.77,5.77,0,0,1-.31-.82c-.36-1.24-.61-2.68-.19-3.39s2.25-1.58,4-1.89c.41-.07.8-.12,1.16-.15H165l.41,0h.34l.32,0a3.79,3.79,0,0,1,.6.07l.14,0h0l.1,0a.58.58,0,0,1,.14,0l.18,0,.28.09.05,0a2.23,2.23,0,0,1,.66.34C168.8,118.2,168.66,120.42,168.5,121.55Z" style="fill: rgb(55, 71, 79); transform-origin: 155.937px 121.849px;" id="elz962iggr4t" class="animable"></path><path d="M162.25,127.45l-5.8,2.54-1.32-7.33c.2-1.1.4-2.23,1.36-2.33Z" style="fill: rgb(240, 153, 122); transform-origin: 158.69px 125.16px;" id="eltiglqvadr8" class="animable"></path><path d="M142.27,118.32l-8.93,4.32a9.15,9.15,0,0,1,1.4,1.07l7.78-3.57Z" style="fill: rgb(55, 71, 79); transform-origin: 137.93px 121.015px;" id="elnfjy5oiz37" class="animable"></path></g><g id="freepik--arm--inject-23" class="animable" style="transform-origin: 160.771px 197.005px;"><path d="M124.59,152.07c-8.19,2.37-11.34,4.6-13.53,10.68-2.85,7.94-9.11,26.53-11,35.78-1,5-1.76,7.24,2.84,12.39,3.82,4.27,13.1,11.46,21.55,17,1.67,1.09,7,5,8.54,5.77,9.63,4.91,20.68,3.48,20.68,3.48l-10.57-6.23-1.91-3.54L119.1,202.73s7.26-21.43,9.17-27.45S130.94,155.76,124.59,152.07Z" style="fill: rgb(255, 189, 167); transform-origin: 126.486px 194.717px;" id="eln9t4m30k9e" class="animable"></path><path d="M119.1,202.73a11.41,11.41,0,0,0-7.41-2.95s3.22-1.6,8.14.87Z" style="fill: rgb(240, 153, 122); transform-origin: 115.76px 201px;" id="el00elsnlxklw26" class="animable"></path><path d="M133.4,222.57v1a2.78,2.78,0,0,0,1.36,2.42l26.36,15.57a2.71,2.71,0,0,0,1.39.38,2.76,2.76,0,0,0,1.39-.35l49-27.55a2.78,2.78,0,0,0,1.42-2.4V211l-51.78,29.12Z" style="fill: rgb(186, 104, 200); transform-origin: 173.86px 226.47px;" id="el1ozo31auq7r" class="animable"></path><g id="elnp88x1fyhps"><g style="opacity: 0.5; transform-origin: 173.86px 226.47px;" class="animable"><path d="M133.4,222.57v1a2.78,2.78,0,0,0,1.36,2.42l26.36,15.57a2.71,2.71,0,0,0,1.39.38,2.76,2.76,0,0,0,1.39-.35l49-27.55a2.78,2.78,0,0,0,1.42-2.4V211l-51.78,29.12Z" style="fill: rgb(255, 255, 255); transform-origin: 173.86px 226.47px;" id="elzh32tko9dt" class="animable"></path></g></g><g id="el1nfr5mh36bg"><g style="opacity: 0.1; transform-origin: 173.86px 226.47px;" class="animable"><path d="M133.4,222.57v1a2.78,2.78,0,0,0,1.36,2.42l26.36,15.57a2.71,2.71,0,0,0,1.39.38,2.76,2.76,0,0,0,1.39-.35l49-27.55a2.78,2.78,0,0,0,1.42-2.4V211l-51.78,29.12Z" id="elmbdztgoa9h" class="animable" style="transform-origin: 173.86px 226.47px;"></path></g></g><path d="M214.3,211l-28.67-17a1.64,1.64,0,0,0-1.66,0L133.59,222.3a.37.37,0,0,0,0,.64l28.94,17.14Z" style="fill: rgb(186, 104, 200); transform-origin: 173.853px 216.927px;" id="elqvg96mshl3" class="animable"></path><g id="eljtgq0yn0tl"><g style="opacity: 0.85; transform-origin: 173.853px 216.927px;" class="animable"><path d="M214.3,211l-28.67-17a1.64,1.64,0,0,0-1.66,0L133.59,222.3a.37.37,0,0,0,0,.64l28.94,17.14Z" style="fill: rgb(255, 255, 255); transform-origin: 173.853px 216.927px;" id="el859shph23hl" class="animable"></path></g></g><polygon points="162.73 237.37 147.27 228.22 192.62 202.72 208.16 211.82 162.73 237.37" style="fill: rgb(186, 104, 200); transform-origin: 177.715px 220.045px;" id="elvh3k5zi25v" class="animable"></polygon><g id="el3spjtw59ttu"><g style="opacity: 0.6; transform-origin: 177.715px 220.045px;" class="animable"><polygon points="162.73 237.37 147.27 228.22 192.62 202.72 208.16 211.82 162.73 237.37" style="fill: rgb(255, 255, 255); transform-origin: 177.715px 220.045px;" id="el1gl488ipgse" class="animable"></polygon></g></g><polygon points="154.91 212.57 155.19 212.74 162.77 217.23 176.43 209.55 176.71 209.39 168.85 204.74 154.91 212.57" style="fill: rgb(186, 104, 200); transform-origin: 165.81px 210.985px;" id="ell9e8pe8isr" class="animable"></polygon><polygon points="155.19 212.74 162.77 217.23 176.43 209.55 168.84 205.06 155.19 212.74" style="fill: rgb(186, 104, 200); transform-origin: 165.81px 211.145px;" id="elkawu7e8akq" class="animable"></polygon><g id="eltokixb0ws8"><g style="opacity: 0.6; transform-origin: 165.81px 211.145px;" class="animable"><polygon points="155.19 212.74 162.77 217.23 176.43 209.55 168.84 205.06 155.19 212.74" style="fill: rgb(255, 255, 255); transform-origin: 165.81px 211.145px;" id="eln62fk7dvb8e" class="animable"></polygon></g></g><path d="M162.52,240.08l0,1.85a2.76,2.76,0,0,0,1.39-.35l49-27.55a2.78,2.78,0,0,0,1.42-2.4V211Z" style="fill: rgb(186, 104, 200); transform-origin: 188.425px 226.465px;" id="elir785dumuw" class="animable"></path><g id="elnm48qvei51"><g style="opacity: 0.03; transform-origin: 188.425px 226.465px;" class="animable"><path d="M162.52,240.08l0,1.85a2.76,2.76,0,0,0,1.39-.35l49-27.55a2.78,2.78,0,0,0,1.42-2.4V211Z" style="fill: rgb(255, 255, 255); transform-origin: 188.425px 226.465px;" id="els1gb4ixek6l" class="animable"></path></g></g><g id="el1ttzbckfyzy"><g style="opacity: 0.2; transform-origin: 188.425px 226.465px;" class="animable"><path d="M162.52,240.08l0,1.85a2.76,2.76,0,0,0,1.39-.35l49-27.55a2.78,2.78,0,0,0,1.42-2.4V211Z" id="elm68egvt2xtg" class="animable" style="transform-origin: 188.425px 226.465px;"></path></g></g><path d="M163.3,240.5a3.27,3.27,0,0,0,2.84-.19l48.76-27.43a3.3,3.3,0,0,0,1.63-2.28L222.19,179a3.32,3.32,0,0,0-.9-2.9l-50.67,28.51a2.44,2.44,0,0,0-1.21,1.69Z" style="fill: rgb(186, 104, 200); transform-origin: 192.77px 208.419px;" id="eljtv53lljz3i" class="animable"></path><g id="eloo0rlg41bjn"><g style="opacity: 0.4; transform-origin: 192.77px 208.419px;" class="animable"><path d="M163.3,240.5a3.27,3.27,0,0,0,2.84-.19l48.76-27.43a3.3,3.3,0,0,0,1.63-2.28L222.19,179a3.32,3.32,0,0,0-.9-2.9l-50.67,28.51a2.44,2.44,0,0,0-1.21,1.69Z" style="fill: rgb(255, 255, 255); transform-origin: 192.77px 208.419px;" id="elgshfuwo4jvl" class="animable"></path></g></g><path d="M162.52,240.08l.33.2a4.71,4.71,0,0,0,.45.22l6.11-34.17a2.44,2.44,0,0,1,1.21-1.69l50.67-28.51a3.36,3.36,0,0,0-.66-.52l-50.78,28.56a2.44,2.44,0,0,0-1.21,1.7Z" style="fill: rgb(186, 104, 200); transform-origin: 191.905px 208.055px;" id="el915cliu0u9g" class="animable"></path><g id="elwh0n5ez6c"><g style="opacity: 0.6; transform-origin: 191.905px 208.055px;" class="animable"><path d="M162.52,240.08l.33.2a4.71,4.71,0,0,0,.45.22l6.11-34.17a2.44,2.44,0,0,1,1.21-1.69l50.67-28.51a3.36,3.36,0,0,0-.66-.52l-50.78,28.56a2.44,2.44,0,0,0-1.21,1.7Z" style="fill: rgb(255, 255, 255); transform-origin: 191.905px 208.055px;" id="elvad1j2ws9g8" class="animable"></path></g></g><path d="M169.88,205.29l-.77-.46a2.41,2.41,0,0,0-.47,1l-6.12,34.21.33.2a4.71,4.71,0,0,0,.45.22l6.11-34.17A2.46,2.46,0,0,1,169.88,205.29Z" style="fill: rgb(186, 104, 200); transform-origin: 166.2px 222.645px;" id="eld8ci650fvsl" class="animable"></path><g id="el33yfkfgfvb6"><path d="M169.88,205.29l-.77-.46a2.41,2.41,0,0,0-.47,1l-6.12,34.21.33.2a4.71,4.71,0,0,0,.45.22l6.11-34.17A2.46,2.46,0,0,1,169.88,205.29Z" style="fill: rgb(255, 255, 255); opacity: 0.5; transform-origin: 166.2px 222.645px;" class="animable"></path></g><g id="elit4oc9mwuxs"><path d="M169.88,205.29l-.77-.46a2.41,2.41,0,0,0-.47,1l-6.12,34.21.33.2a4.71,4.71,0,0,0,.45.22l6.11-34.17A2.46,2.46,0,0,1,169.88,205.29Z" style="fill: rgb(186, 104, 200); opacity: 0.5; transform-origin: 166.2px 222.645px;" class="animable"></path></g><path d="M190.91,211.61c.38-2.12,2.6-4.91,5-6.23s4-.69,3.58,1.43-2.6,4.9-5,6.22S190.53,213.72,190.91,211.61Z" style="fill: rgb(186, 104, 200); transform-origin: 195.205px 209.205px;" id="el2g73mesweco" class="animable"></path><path d="M132.42,219.78c2.76,1.9,6.44.31,10.08.71s6.78,1.26,9.7,1.14,4.36.47,2.35,2.83-7.91,1.08-9.48,1.81a3.4,3.4,0,0,0-.69,5.4c1.74,2-9.79-1.75-11.35-4.1S130.34,220.11,132.42,219.78Z" style="fill: rgb(255, 189, 167); transform-origin: 143.385px 226.009px;" id="el8y3nrbdifw3" class="animable"></path><path d="M124.59,152.07c-5.52,1.15-7.79,2.44-10.65,4.77s-11.13,22-11.13,22,5,6.86,21.82,9.29c0,0,4.72-12.83,5.65-16.9S132.41,155.08,124.59,152.07Z" style="fill: rgb(230, 230, 230); transform-origin: 116.884px 170.1px;" id="elh2eod5t6a8g" class="animable"></path></g></g></g></g><g id="freepik--Icons--inject-23" class="animable" style="transform-origin: 417.61px 311.672px;"><g id="freepik--Icon--inject-23" class="animable" style="transform-origin: 417.61px 246.67px;"><g id="freepik--Box--inject-23" class="animable" style="transform-origin: 417.61px 246.67px;"><path d="M403.94,214l33.42,19.26a3.44,3.44,0,0,1,1.56,2.7V275a3.39,3.39,0,0,1-1.57,2.68l-3,1.68a3.49,3.49,0,0,1-3.12,0l-33.42-19.26a3.43,3.43,0,0,1-1.55-2.7V218.32a3.41,3.41,0,0,1,1.56-2.68l3-1.68A3.49,3.49,0,0,1,403.94,214Z" style="fill: rgb(186, 104, 200); transform-origin: 417.59px 246.67px;" id="eluy7pll0xo1" class="animable"></path><g id="elpobjpyzmkjn"><path d="M431.27,279.34a3.56,3.56,0,0,0,3.12,0l3-1.69a3.39,3.39,0,0,0,1.57-2.67V235.94a3.22,3.22,0,0,0-.5-1.59l-6.05,3.5a3.19,3.19,0,0,1,.46,1.53v39.06C432.82,279.35,432.18,279.87,431.27,279.34Z" style="fill: rgb(255, 255, 255); opacity: 0.4; transform-origin: 435.115px 257.025px;" class="animable"></path></g><g id="elpdfhczmhgv"><path d="M396.32,218c.12-.78.76-1.06,1.53-.62l33.42,19.27a3.16,3.16,0,0,1,1.1,1.16l6.06-3.5a3.09,3.09,0,0,0-1.07-1.11L403.94,214a3.46,3.46,0,0,0-3.12,0l-3,1.68A3.42,3.42,0,0,0,396.32,218Z" style="fill: rgb(255, 255, 255); opacity: 0.7; transform-origin: 417.375px 225.719px;" class="animable"></path></g><path d="M397.85,217.43l33.42,19.26a3.42,3.42,0,0,1,1.55,2.69v39.06c0,1-.69,1.4-1.55.9l-33.42-19.26a3.43,3.43,0,0,1-1.55-2.7V218.32C396.3,217.33,397,216.93,397.85,217.43Z" style="fill: rgb(186, 104, 200); transform-origin: 414.56px 248.385px;" id="eljbrxce2fg5e" class="animable"></path><g id="elk3wdhg9rzmk"><path d="M397.85,217.43l33.42,19.26a3.42,3.42,0,0,1,1.55,2.69v39.06c0,1-.69,1.4-1.55.9l-33.42-19.26a3.43,3.43,0,0,1-1.55-2.7V218.32C396.3,217.33,397,216.93,397.85,217.43Z" style="fill: rgb(255, 255, 255); opacity: 0.55; transform-origin: 414.56px 248.385px;" class="animable"></path></g></g><path d="M408.08,256.56c.1.15.24.22.33.18l1.62-.8c.36-.17.87,0,1.32.55l0,0a3.35,3.35,0,0,1,.81,1.86l.25,2.9a.67.67,0,0,0,.22.44,16.08,16.08,0,0,0,1.92,1.33,11.48,11.48,0,0,0,1.92.88c.12,0,.21,0,.23-.19l.23-2.62c.05-.59.36-.94.81-.93h0a1.82,1.82,0,0,1,1.32,1l1.63,2.66c.09.15.22.24.32.2a5.81,5.81,0,0,0,2.71-2.06.46.46,0,0,0,0-.44l-1.29-2.92a2.49,2.49,0,0,1-.16-1.85v0a.74.74,0,0,1,1.05-.49l2.07.86c.12.06.21,0,.23-.16a15.76,15.76,0,0,0,.16-2.45,21.47,21.47,0,0,0-.17-2.66.59.59,0,0,0-.23-.43l-2.07-1.52a3,3,0,0,1-1.05-1.67s0,0,0-.06a1.88,1.88,0,0,1,.16-1.67l1.28-1.42a.43.43,0,0,0,0-.43,28.72,28.72,0,0,0-2.72-5.19c-.1-.14-.23-.22-.32-.17l-1.63.79c-.35.17-.86,0-1.32-.54l0,0a3.45,3.45,0,0,1-.81-1.87l-.24-2.9a.68.68,0,0,0-.23-.44,12.86,12.86,0,0,0-3.84-2.21c-.12,0-.21,0-.22.19l-.23,2.62c-.05.58-.36.94-.82.94h0a1.85,1.85,0,0,1-1.33-1l-1.63-2.65c-.09-.15-.22-.23-.32-.19a5.75,5.75,0,0,0-2.71,2.06.48.48,0,0,0,0,.44l1.29,2.91a2.5,2.5,0,0,1,.17,1.85s0,0,0,0a.73.73,0,0,1-1,.47l-2.06-.87c-.12,0-.21,0-.23.16a16.76,16.76,0,0,0-.16,2.48,21.3,21.3,0,0,0,.16,2.65.68.68,0,0,0,.24.43l2.07,1.5a3.13,3.13,0,0,1,1,1.7h0a.08.08,0,0,0,0,0,1.87,1.87,0,0,1-.16,1.67L405.37,251a.48.48,0,0,0,0,.43A29.63,29.63,0,0,0,408.08,256.56Zm.78-11.83c0-4.19,2.54-6.14,5.68-4.35s5.7,6.7,5.71,10.89-2.54,6.13-5.68,4.33S408.87,248.92,408.86,244.73Z" style="fill: rgb(255, 255, 255); transform-origin: 414.56px 248.025px;" id="elytzn6hzwkh" class="animable"></path></g><g id="freepik--icon--inject-23" class="animable" style="transform-origin: 417.61px 311.663px;"><g id="freepik--box--inject-23" class="animable" style="transform-origin: 417.61px 311.663px;"><path d="M403.94,279l33.42,19.26a3.43,3.43,0,0,1,1.56,2.69V340a3.38,3.38,0,0,1-1.57,2.68l-3,1.68a3.49,3.49,0,0,1-3.12,0l-33.42-19.26a3.45,3.45,0,0,1-1.55-2.7V283.3a3.41,3.41,0,0,1,1.56-2.68l3-1.68A3.46,3.46,0,0,1,403.94,279Z" style="fill: rgb(186, 104, 200); transform-origin: 417.59px 311.663px;" id="el6xkj260fm2e" class="animable"></path><g id="el5q0fbi2ta3"><path d="M431.27,344.32a3.56,3.56,0,0,0,3.12,0l3-1.69a3.39,3.39,0,0,0,1.57-2.68V300.91a3.25,3.25,0,0,0-.5-1.59l-6.05,3.51a3.16,3.16,0,0,1,.46,1.53v39.06C432.82,344.32,432.18,344.85,431.27,344.32Z" style="fill: rgb(255, 255, 255); opacity: 0.4; transform-origin: 435.115px 322px;" class="animable"></path></g><g id="el8pppsk5d68"><path d="M396.32,283c.12-.79.76-1.07,1.53-.62l33.42,19.26a3.27,3.27,0,0,1,1.1,1.17l6.06-3.51a3.06,3.06,0,0,0-1.07-1.1L403.94,279a3.49,3.49,0,0,0-3.12,0l-3,1.68A3.4,3.4,0,0,0,396.32,283Z" style="fill: rgb(255, 255, 255); opacity: 0.7; transform-origin: 417.375px 290.721px;" class="animable"></path></g><path d="M397.85,282.4l33.42,19.26a3.45,3.45,0,0,1,1.55,2.7v39.06c0,1-.69,1.39-1.55.9l-33.42-19.26a3.45,3.45,0,0,1-1.55-2.7V283.3C396.3,282.31,397,281.91,397.85,282.4Z" style="fill: rgb(186, 104, 200); transform-origin: 414.56px 313.361px;" id="elih687wk33rn" class="animable"></path><g id="elku4ci81wyu"><path d="M397.85,282.4l33.42,19.26a3.45,3.45,0,0,1,1.55,2.7v39.06c0,1-.69,1.39-1.55.9l-33.42-19.26a3.45,3.45,0,0,1-1.55-2.7V283.3C396.3,282.31,397,281.91,397.85,282.4Z" style="fill: rgb(255, 255, 255); opacity: 0.55; transform-origin: 414.56px 313.361px;" class="animable"></path></g></g><path d="M404.33,295.34v9.89l.9.5v-3.12c0-1.68,1.36-2.25,3-1.28l4.2,2.43V321.6c0,1.94-1.19,2.84-2.66,2l-2.64-1.52v1.07l14.28,8.24v-1.07l-2.63-1.52a6.37,6.37,0,0,1-2.67-5.07V305.88l4.2,2.43a6.31,6.31,0,0,1,3.06,4.8v3.12l.9.54v-9.89Z" style="fill: rgb(255, 255, 255); transform-origin: 414.3px 313.365px;" id="elneh5gj3swcs" class="animable"></path></g><g id="freepik--icon--inject-23" class="animable" style="transform-origin: 417.63px 376.649px;"><g id="freepik--box--inject-23" class="animable" style="transform-origin: 417.63px 376.649px;"><path d="M403.94,343.93l33.42,19.26a3.46,3.46,0,0,1,1.56,2.7V405a3.39,3.39,0,0,1-1.57,2.68l-3,1.68a3.46,3.46,0,0,1-3.12,0L397.85,390a3.42,3.42,0,0,1-1.55-2.69V348.28a3.39,3.39,0,0,1,1.56-2.68l3-1.68A3.49,3.49,0,0,1,403.94,343.93Z" style="fill: rgb(186, 104, 200); transform-origin: 417.61px 376.649px;" id="el6knch2pph53" class="animable"></path><g id="else9obw03nb"><path d="M431.27,409.29a3.56,3.56,0,0,0,3.12,0l3-1.68a3.42,3.42,0,0,0,1.57-2.68V365.89a3.22,3.22,0,0,0-.5-1.59l-6.05,3.51a3.16,3.16,0,0,1,.46,1.53v39.05C432.82,409.3,432.18,409.83,431.27,409.29Z" style="fill: rgb(255, 255, 255); opacity: 0.4; transform-origin: 435.115px 386.975px;" class="animable"></path></g><g id="elsuvczaslvz"><path d="M396.32,348c.12-.78.76-1.06,1.53-.61l33.42,19.26a3.19,3.19,0,0,1,1.1,1.17l6.06-3.51a3.09,3.09,0,0,0-1.07-1.11l-33.42-19.26a3.49,3.49,0,0,0-3.12,0l-3,1.68A3.44,3.44,0,0,0,396.32,348Z" style="fill: rgb(255, 255, 255); opacity: 0.7; transform-origin: 417.375px 355.696px;" class="animable"></path></g><path d="M397.85,347.38l33.42,19.26a3.43,3.43,0,0,1,1.55,2.7V408.4c0,1-.69,1.39-1.55.89L397.85,390a3.42,3.42,0,0,1-1.55-2.69V348.28C396.3,347.28,397,346.88,397.85,347.38Z" style="fill: rgb(186, 104, 200); transform-origin: 414.56px 378.336px;" id="elroinzmbt7fs" class="animable"></path><g id="elf0epeoutp5"><path d="M397.85,347.38l33.42,19.26a3.43,3.43,0,0,1,1.55,2.7V408.4c0,1-.69,1.39-1.55.89L397.85,390a3.42,3.42,0,0,1-1.55-2.69V348.28C396.3,347.28,397,346.88,397.85,347.38Z" style="fill: rgb(255, 255, 255); opacity: 0.55; transform-origin: 414.56px 378.336px;" class="animable"></path></g></g><polygon points="412.64 375.14 402.83 369.47 402.83 356.38 412.64 362.05 412.64 375.14" style="fill: rgb(186, 104, 200); transform-origin: 407.735px 365.76px;" id="eluasu5dq8uor" class="animable"></polygon><polygon points="426.3 383.02 416.48 377.35 416.48 364.26 426.3 369.93 426.3 383.02" style="fill: rgb(69, 90, 100); transform-origin: 421.39px 373.64px;" id="elj3ojg67g1x" class="animable"></polygon><polygon points="412.64 392.84 402.83 387.17 402.83 374.08 412.64 379.75 412.64 392.84" style="fill: rgb(186, 104, 200); transform-origin: 407.735px 383.46px;" id="el52w0fbalsjg" class="animable"></polygon><g id="elklgb8pbhn9m"><polygon points="412.64 392.84 402.83 387.17 402.83 374.08 412.64 379.75 412.64 392.84" style="opacity: 0.25; transform-origin: 407.735px 383.46px;" class="animable"></polygon></g><polygon points="426.3 400.72 416.48 395.05 416.48 381.96 426.3 387.63 426.3 400.72" style="fill: rgb(250, 250, 250); transform-origin: 421.39px 391.34px;" id="eltpmmzhnzocj" class="animable"></polygon></g></g><g id="freepik--paper-planes--inject-23" class="animable" style="transform-origin: 256.565px 155.425px;"><g id="freepik--paper-plane--inject-23" class="animable" style="transform-origin: 441.545px 109.905px;"><polygon points="445.61 89.5 411.47 69.32 435.17 95.67 445.61 89.5" style="fill: rgb(186, 104, 200); transform-origin: 428.54px 82.495px;" id="el5jn03iuqzw3" class="animable"></polygon><polygon points="411.47 69.32 449.6 85.26 460.04 79.09 411.47 69.32" style="fill: rgb(186, 104, 200); transform-origin: 435.755px 77.29px;" id="elicma4yqkkc" class="animable"></polygon><polygon points="449.6 85.26 447.28 95.08 445.61 89.5 411.47 69.32 449.6 85.26" style="fill: rgb(186, 104, 200); transform-origin: 430.535px 82.2px;" id="el6vojre321qu" class="animable"></polygon><g id="el23l9n203bit"><polygon points="449.6 85.26 447.28 95.08 445.61 89.5 411.47 69.32 449.6 85.26" style="opacity: 0.2; transform-origin: 430.535px 82.2px;" class="animable"></polygon></g><polygon points="447.28 95.08 442.13 91.56 445.61 89.5 447.28 95.08" style="fill: rgb(186, 104, 200); transform-origin: 444.705px 92.29px;" id="elxsi6rerpf4" class="animable"></polygon><g id="elcbm5ks5x07"><polygon points="445.61 89.5 442.13 91.56 442.95 92.12 445.61 89.5" style="opacity: 0.2; transform-origin: 443.87px 90.81px;" class="animable"></polygon></g><path d="M455.57,98.1a.67.67,0,0,0,.49-.21.68.68,0,0,0,0-1c-.69-.64-1.38-1.25-2.06-1.79a.68.68,0,0,0-1,.1.67.67,0,0,0,.11.94c.65.53,1.32,1.11,2,1.73A.67.67,0,0,0,455.57,98.1Z" style="fill: rgb(224, 224, 224); transform-origin: 454.568px 96.5129px;" id="elojyp4emwpx" class="animable"></path><path d="M464.22,150.36a.66.66,0,0,1-.15-.93,37.9,37.9,0,0,0,2.71-4.41.68.68,0,0,1,.91-.29.67.67,0,0,1,.28.9,37.8,37.8,0,0,1-2.81,4.58.68.68,0,0,1-.55.28A.65.65,0,0,1,464.22,150.36Zm4.7-8.43a.68.68,0,0,1-.41-.86,25.84,25.84,0,0,0,1.06-3.71c.1-.43.18-.85.25-1.28a.67.67,0,1,1,1.32.23c-.07.44-.16.88-.25,1.33a29.75,29.75,0,0,1-1.11,3.88.67.67,0,0,1-.63.45A.59.59,0,0,1,468.92,141.93Zm2-9.44a.66.66,0,0,1-.64-.69c0-.42,0-.83,0-1.24a37.61,37.61,0,0,0-.22-3.94.66.66,0,0,1,.59-.74.68.68,0,0,1,.74.59,37.8,37.8,0,0,1,.23,4.09c0,.43,0,.85,0,1.28a.67.67,0,0,1-.67.65Zm-1.57-10.13a45.45,45.45,0,0,0-1.47-5,.66.66,0,0,1,.4-.85.67.67,0,0,1,.86.4,44,44,0,0,1,1.52,5.14.67.67,0,0,1-.51.8.39.39,0,0,1-.15,0A.66.66,0,0,1,469.33,122.36Zm-3.14-9a48.43,48.43,0,0,0-2.45-4.6.68.68,0,0,1,.23-.93.67.67,0,0,1,.92.24,51.05,51.05,0,0,1,2.52,4.72.67.67,0,0,1-.32.89.75.75,0,0,1-.29.06A.68.68,0,0,1,466.19,113.37Zm-4.83-8.24c-1-1.43-2.11-2.8-3.24-4.09a.66.66,0,0,1,.06-.94.67.67,0,0,1,.95.06c1.16,1.32,2.27,2.73,3.32,4.19a.67.67,0,0,1-.16.93.63.63,0,0,1-.39.13A.66.66,0,0,1,461.36,105.13Z" style="fill: rgb(224, 224, 224); transform-origin: 464.796px 125.205px;" id="elgsejdvlm65a" class="animable"></path></g><g id="freepik--paper-plane--inject-23" class="animable" style="transform-origin: 69.615px 198.309px;"><polygon points="97.72 241.53 57.52 221.42 41.51 228.51 97.72 241.53" style="fill: rgb(186, 104, 200); transform-origin: 69.615px 231.475px;" id="elppsyd05zfb9" class="animable"></polygon><polygon points="97.72 241.53 62.31 217.86 68.65 208.74 97.72 241.53" style="fill: rgb(186, 104, 200); transform-origin: 80.015px 225.135px;" id="el8wmcnr3e4fy" class="animable"></polygon><polygon points="62.31 217.86 62.98 224.15 97.72 241.53 62.31 217.86" style="fill: rgb(186, 104, 200); transform-origin: 80.015px 229.695px;" id="eldffcelx5mnn" class="animable"></polygon><g id="elw2r08fsf0f9"><polygon points="62.31 217.86 62.98 224.15 97.72 241.53 62.31 217.86" style="opacity: 0.2; transform-origin: 80.015px 229.695px;" class="animable"></polygon></g><path d="M56.72,217.62a.67.67,0,0,0,.49-1.13A27.72,27.72,0,0,1,54,212.38a.67.67,0,1,0-1.12.73,28.59,28.59,0,0,0,3.4,4.3A.66.66,0,0,0,56.72,217.62Z" style="fill: rgb(224, 224, 224); transform-origin: 55.069px 214.828px;" id="elt1z10qpq4ca" class="animable"></path><path d="M51.25,209.5a.71.71,0,0,0,.28-.06.67.67,0,0,0,.33-.89,31.89,31.89,0,0,1-1.78-4.94.66.66,0,0,0-.82-.48.67.67,0,0,0-.47.83,33.54,33.54,0,0,0,1.85,5.15A.68.68,0,0,0,51.25,209.5Z" style="fill: rgb(224, 224, 224); transform-origin: 50.343px 206.303px;" id="elzew43xuovua" class="animable"></path><path d="M48.56,200.07h.09a.67.67,0,0,0,.58-.75,34.16,34.16,0,0,1-.3-4.54c0-.24,0-.48,0-.72a.67.67,0,0,0-.66-.68h0a.66.66,0,0,0-.67.66c0,.25,0,.49,0,.74a34.93,34.93,0,0,0,.31,4.71A.67.67,0,0,0,48.56,200.07Z" style="fill: rgb(224, 224, 224); transform-origin: 48.4177px 196.725px;" id="el1f3ry8ffw76" class="animable"></path><path d="M48.64,190.25a.67.67,0,0,0,.66-.57,36.89,36.89,0,0,1,1.13-5.14.67.67,0,0,0-1.29-.39A38.3,38.3,0,0,0,48,189.49a.67.67,0,0,0,.57.76Z" style="fill: rgb(224, 224, 224); transform-origin: 49.2257px 186.961px;" id="elhrumeehnb2q" class="animable"></path><path d="M51.3,180.81a.68.68,0,0,0,.62-.4,38.44,38.44,0,0,1,2.41-4.69.67.67,0,0,0-.23-.92.68.68,0,0,0-.92.22,40.5,40.5,0,0,0-2.49,4.86.67.67,0,0,0,.35.88A.75.75,0,0,0,51.3,180.81Z" style="fill: rgb(224, 224, 224); transform-origin: 52.5306px 177.758px;" id="el2uyakarz1tn" class="animable"></path><path d="M56.28,172.35a.67.67,0,0,0,.53-.26,41.89,41.89,0,0,1,3.48-4,.67.67,0,0,0,0-1,.68.68,0,0,0-1,0,43.06,43.06,0,0,0-3.58,4.1.67.67,0,0,0,.12.94A.64.64,0,0,0,56.28,172.35Z" style="fill: rgb(224, 224, 224); transform-origin: 58.042px 169.61px;" id="elaiy1qp1rva" class="animable"></path><path d="M63,165.19a.67.67,0,0,0,.88,0,35.25,35.25,0,0,1,4.26-3.08.68.68,0,0,0,.22-.93.67.67,0,0,0-.92-.22A37.33,37.33,0,0,0,63,164.18a.67.67,0,0,0-.08.94Z" style="fill: rgb(224, 224, 224); transform-origin: 65.6116px 163.108px;" id="elg9rg26v26yu" class="animable"></path><path d="M71.27,159.92A.71.71,0,0,0,72,160a37.91,37.91,0,0,1,4.92-1.9.66.66,0,0,0,.44-.83.67.67,0,0,0-.84-.45,40.55,40.55,0,0,0-5.09,2,.68.68,0,0,0-.33.89A.73.73,0,0,0,71.27,159.92Z" style="fill: rgb(224, 224, 224); transform-origin: 74.216px 158.428px;" id="eli8y30sjqvf" class="animable"></path><path d="M80.62,156.92a.68.68,0,0,0,.57.16,41.21,41.21,0,0,1,5.24-.65.67.67,0,0,0-.08-1.34,41.86,41.86,0,0,0-5.41.67.67.67,0,0,0-.53.78A.68.68,0,0,0,80.62,156.92Z" style="fill: rgb(224, 224, 224); transform-origin: 83.7296px 156.09px;" id="el3yate2ky6jt" class="animable"></path></g></g><defs>     <filter id="active" height="200%">         <feMorphology in="SourceAlpha" result="DILATED" operator="dilate" radius="2"></feMorphology>                <feFlood flood-color="#32DFEC" flood-opacity="1" result="PINK"></feFlood>        <feComposite in="PINK" in2="DILATED" operator="in" result="OUTLINE"></feComposite>        <feMerge>            <feMergeNode in="OUTLINE"></feMergeNode>            <feMergeNode in="SourceGraphic"></feMergeNode>        </feMerge>    </filter>    <filter id="hover" height="200%">        <feMorphology in="SourceAlpha" result="DILATED" operator="dilate" radius="2"></feMorphology>                <feFlood flood-color="#ff0000" flood-opacity="0.5" result="PINK"></feFlood>        <feComposite in="PINK" in2="DILATED" operator="in" result="OUTLINE"></feComposite>        <feMerge>            <feMergeNode in="OUTLINE"></feMergeNode>            <feMergeNode in="SourceGraphic"></feMergeNode>        </feMerge>            <feColorMatrix type="matrix" values="0   0   0   0   0                0   1   0   0   0                0   0   0   0   0                0   0   0   1   0 "></feColorMatrix>    </filter></defs></svg>